<?xml version="1.0" standalone="no"?><svg xmlns="http://www.w3.org/2000/svg" viewBox="0 0 1440 320"><path fill="#fff" fill-opacity="1" d="M0,64L34.3,85.3C68.6,107,137,149,206,192C274.3,235,343,277,411,256C480,235,549,149,617,133.3C685.7,117,754,171,823,170.7C891.4,171,960,117,1029,117.3C1097.1,117,1166,171,1234,176C1302.9,181,1371,139,1406,117.3L1440,96L1440,320L1405.7,320C1371.4,320,1303,320,1234,320C1165.7,320,1097,320,1029,320C960,320,891,320,823,320C754.3,320,686,320,617,320C548.6,320,480,320,411,320C342.9,320,274,320,206,320C137.1,320,69,320,34,320L0,320Z"></path></svg>