<?xml version="1.0" encoding="iso-8859-1"?>
<!-- Generator: Adobe Illustrator 19.0.0, SVG Export Plug-In . SVG Version: 6.00 Build 0)  -->
<svg version="1.1" id="Capa_1" xmlns="http://www.w3.org/2000/svg" xmlns:xlink="http://www.w3.org/1999/xlink" x="0px" y="0px"
	 viewBox="0 0 512 512" style="enable-background:new 0 0 512 512;" fill="#3c4043" xml:space="preserve">
<g>
	<g>
		<path d="M510.96,220.892c-2.077-7.755-7.033-14.227-13.953-18.222l-294.451-170c-7.553-4.36-16.156-6.665-24.878-6.665
			c-17.892,0-34.528,9.566-43.419,24.964l-50,86.602c-3.996,6.921-5.052,15.003-2.974,22.758
			c2.078,7.756,7.034,14.228,13.955,18.223l8.659,5l-5,8.66c-8.271,14.326-3.345,32.709,10.98,40.979l99.264,57.31l-20.638,35.746
			c-1.86-0.149-3.734-0.247-5.632-0.247c-25.625,0-48.066,13.85-60.264,34.449c-0.121,0.181-0.246,0.359-0.356,0.55
			c-0.117,0.202-0.214,0.41-0.316,0.616c-0.811,1.433-1.583,2.891-2.295,4.384H59.999v-70c0-16.542-13.458-29.999-29.999-29.999H10
			c-5.523,0-10,4.477-10,10v199.996c0,5.523,4.477,10,10,10h20c16.542,0,29.999-13.458,29.999-29.999v-29.999h59.645
			c11.255,23.628,35.363,39.999,63.231,39.999c25.681,0,48.163-13.911,60.343-34.584c0.091-0.141,0.194-0.268,0.278-0.415
			c0.118-0.204,0.216-0.414,0.318-0.622c5.756-10.162,9.06-21.888,9.06-34.377c0-14.749-4.597-28.437-12.416-39.734l20.648-35.763
			l91.261,52.689c4.536,2.619,9.703,4.003,14.942,4.004c0.001,0,0.001,0,0.002,0c10.723,0,20.7-5.742,26.035-14.984l5.001-8.663
			l8.662,5c4.537,2.62,9.705,4.004,14.943,4.004c10.726,0,20.704-5.742,26.04-14.986l19.994-34.63
			c3.996-6.921,5.053-15.004,2.974-22.76c-1.737-6.485-5.493-12.066-10.722-16.059l31.678-8.488c2.563-0.686,4.746-2.362,6.072-4.66
			l9.999-17.319C511.981,236.729,513.038,228.647,510.96,220.892z M39.999,455.995c0,5.514-4.486,10-10,10H20V285.999h10
			c5.514,0,10,4.486,10,10V455.995z M113.602,405.997H60v-19.999h53.602c-0.47,3.268-0.726,6.604-0.726,9.999
			C112.876,399.393,113.132,402.728,113.602,405.997z M182.874,445.996c-27.569,0-49.998-22.43-49.998-49.999
			c0-5.532,0.917-10.851,2.583-15.829l84.811,48.965C211.103,439.467,197.741,445.996,182.874,445.996z M230.29,411.826
			l-84.811-48.966c9.166-10.332,22.529-16.861,37.395-16.861c27.569,0,49.999,22.43,49.999,49.998
			C232.873,401.529,231.956,406.848,230.29,411.826z M226.151,341.042c-5.222-4.122-11.04-7.513-17.306-10.027l17.619-30.516
			l17.321,10.001L226.151,341.042z M376.024,352.209c-1.774,3.075-5.113,4.984-8.715,4.984c0,0,0,0-0.001,0
			c-1.733,0-3.443-0.458-4.943-1.324L119.88,215.87c-4.775-2.757-6.417-8.885-3.66-13.66l5-8.66l199.186,115.001
			c0.346,0.2,0.703,0.37,1.066,0.525c0.107,0.046,0.215,0.085,0.323,0.127c0.272,0.106,0.549,0.2,0.829,0.281
			c0.109,0.032,0.219,0.065,0.329,0.094c0.38,0.096,0.763,0.177,1.15,0.228c0.005,0.001,0.011,0.001,0.017,0.001
			c0.382,0.049,0.767,0.07,1.152,0.075c0.044,0,0.088,0.009,0.133,0.009c0.072,0,0.145-0.013,0.217-0.014
			c0.288-0.006,0.575-0.025,0.863-0.057c0.115-0.012,0.23-0.022,0.347-0.039c0.389-0.057,0.777-0.128,1.161-0.231l85.957-23.031
			L376.024,352.209z M450.665,302.934l-19.994,34.63c-1.775,3.076-5.117,4.986-8.721,4.986c-1.758,0-3.421-0.446-4.943-1.325
			l-8.662-5.001l29.996-51.956l8.662,5.001c2.295,1.325,3.941,3.484,4.637,6.08C452.337,297.947,451.99,300.639,450.665,302.934z
			 M490.666,233.65l-7.928,13.733l-155.92,41.777L105.241,161.231c-2.294-1.324-3.941-3.483-4.636-6.078
			c-0.695-2.595-0.349-5.288,0.976-7.583l50-86.601c5.33-9.231,15.331-14.966,26.099-14.966c5.218,0,10.363,1.378,14.879,3.986
			l294.45,170.001c2.294,1.324,3.939,3.483,4.635,6.077C492.337,228.663,491.99,231.355,490.666,233.65z"/>
	</g>
</g>
<g>
	<g>
		<path d="M330.616,250.937l-0.233-0.135c-4.784-2.761-10.898-1.122-13.66,3.66c-2.762,4.783-1.123,10.899,3.66,13.661l0.233,0.135
			c1.575,0.909,3.294,1.341,4.99,1.341c3.456,0,6.817-1.793,8.67-5.001C337.038,259.815,335.399,253.699,330.616,250.937z"/>
	</g>
</g>
<g>
	<g>
		<path d="M305.501,236.438L140.06,140.92c-4.782-2.762-10.899-1.124-13.66,3.66c-2.761,4.783-1.123,10.899,3.66,13.66
			l165.441,95.519c1.575,0.909,3.294,1.341,4.99,1.341c3.456,0,6.817-1.793,8.67-5.001
			C311.923,245.315,310.284,239.2,305.501,236.438z"/>
	</g>
</g>
<g>
	<g>
		<path d="M458.289,220.731l-26.875-15.517c-4.784-2.761-10.898-1.122-13.66,3.66c-2.762,4.783-1.123,10.899,3.66,13.66
			l26.875,15.517c1.575,0.909,3.294,1.341,4.99,1.341c3.456,0,6.817-1.794,8.67-5.001
			C464.711,229.609,463.072,223.493,458.289,220.731z"/>
	</g>
</g>
<g>
	<g>
		<path d="M406.532,190.85l-0.233-0.135c-4.784-2.762-10.898-1.123-13.66,3.66c-2.762,4.783-1.123,10.899,3.66,13.661l0.233,0.135
			c1.575,0.909,3.294,1.341,4.99,1.341c3.456,0,6.817-1.794,8.67-5.001C412.954,199.727,411.315,193.611,406.532,190.85z"/>
	</g>
</g>
<g>
</g>
<g>
</g>
<g>
</g>
<g>
</g>
<g>
</g>
<g>
</g>
<g>
</g>
<g>
</g>
<g>
</g>
<g>
</g>
<g>
</g>
<g>
</g>
<g>
</g>
<g>
</g>
<g>
</g>
</svg>
