<svg id="Layer_3" enable-background="new 0 0 64 64" height="512" viewBox="0 0 64 64" width="512" fill="#5f6063" xmlns="http://www.w3.org/2000/svg"><path d="m58 1h-8c-1.564 0-3.061.747-4 2l-1.5 2h-16.5c-2.757 0-5 2.243-5 5v13h-19c-1.654 0-3 1.346-3 3v2c0 1.338.886 2.461 2.098 2.846l3.472 27.774c.312 2.497 2.445 4.38 4.961 4.38h18.938c2.517 0 4.649-1.883 4.961-4.38l2.953-23.62h19.617c2.757 0 5-2.243 5-5v-24c0-2.757-2.243-5-5-5zm-30 6h17.5l2.1-2.8c.564-.752 1.461-1.2 2.4-1.2h8c1.654 0 3 1.346 3 3v3h-35.816c.414-1.161 1.514-2 2.816-2zm-25 19c0-.552.448-1 1-1h34c.552 0 1 .448 1 1v2c0 .552-.448 1-1 1h-34c-.552 0-1-.448-1-1zm2.884 11.011c.038-.002.079-.011.116-.011h2c1.654 0 3 1.346 3 3v12c0 1.609-1.276 2.916-2.869 2.987zm24.585 23.989h-18.938c-1.51 0-2.789-1.13-2.977-2.628l-.176-1.41c2.578-.198 4.622-2.335 4.622-4.962v-12c0-2.757-2.243-5-5-5h-2c-.12 0-.242.021-.363.031l-.504-4.031h31.735l-.504 4.031c-.122-.01-.244-.031-.364-.031h-2c-2.757 0-5 2.243-5 5v12c0 2.627 2.044 4.764 4.622 4.962l-.176 1.41c-.188 1.498-1.467 2.628-2.977 2.628zm3.4-6.013c-1.593-.071-2.869-1.378-2.869-2.987v-12c0-1.654 1.346-3 3-3h2c.037 0 .078.009.116.011zm24.131-21.987h-19.367l.269-2.154c1.212-.385 2.098-1.508 2.098-2.846v-2c0-1.654-1.346-3-3-3h-13v-12h36v19c0 1.654-1.346 3-3 3z"/><path d="m57 5h2v2h-2z"/><path d="m53 5h2v2h-2z"/><path d="m49 5h2v2h-2z"/><path d="m57 29h2v2h-2z"/><path d="m53 29h2v2h-2z"/><path d="m49 29h2v2h-2z"/><path d="m22 35h-2c-2.757 0-5 2.243-5 5v12c0 2.757 2.243 5 5 5h2c2.757 0 5-2.243 5-5v-12c0-2.757-2.243-5-5-5zm3 17c0 1.654-1.346 3-3 3h-2c-1.654 0-3-1.346-3-3v-12c0-1.654 1.346-3 3-3h2c1.654 0 3 1.346 3 3z"/><path d="m10 14c0-1.654 1.346-3 3-3h4.586l-2.293 2.293 1.414 1.414 4.707-4.707-4.707-4.707-1.414 1.414 2.293 2.293h-4.586c-2.757 0-5 2.243-5 5v3h2z"/><path d="m8 19h2v2h-2z"/><path d="m51 44c0 1.654-1.346 3-3 3h-4.586l2.293-2.293-1.414-1.414-4.707 4.707 4.707 4.707 1.414-1.414-2.293-2.293h4.586c2.757 0 5-2.243 5-5v-3h-2z"/><path d="m51 37h2v2h-2z"/></svg>
