<svg height="480pt" viewBox="-88 0 480 480" width="480pt" fill="#5f6063" xmlns="http://www.w3.org/2000/svg"><path d="m264 0h-224c-22.082031.0273438-39.9726562 17.917969-40 40v400c.0273438 22.082031 17.917969 39.972656 40 40h224c22.082031-.027344 39.972656-17.917969 40-40v-400c-.027344-22.082031-17.917969-39.9726562-40-40zm-168 16h112v16c0 4.417969-3.582031 8-8 8h-96c-4.417969 0-8-3.582031-8-8zm192 424c0 13.253906-10.746094 24-24 24h-224c-13.253906 0-24-10.746094-24-24v-400c0-13.253906 10.746094-24 24-24h40v16c0 13.253906 10.746094 24 24 24h96c13.253906 0 24-10.746094 24-24v-16h40c13.253906 0 24 10.746094 24 24zm0 0"/><path d="m265.601562 176.160156-21.921874-4.398437c-1.773438-5.75-4.085938-11.320313-6.902344-16.632813l12.390625-18.617187c2.109375-3.171875 1.6875-7.394531-1.007813-10.085938l-22.558594-22.5625c-2.695312-2.695312-6.914062-3.117187-10.089843-1.007812l-18.617188 12.390625c-5.3125-2.816406-10.882812-5.128906-16.628906-6.902344l-4.402344-21.917969c-.75-3.746093-4.042969-6.4375-7.863281-6.425781h-32c-3.800781 0-7.078125 2.675781-7.839844 6.398438l-4.398437 21.921874c-5.75 1.773438-11.320313 4.085938-16.632813 6.902344l-18.617187-12.390625c-3.171875-2.109375-7.394531-1.6875-10.085938 1.007813l-22.5625 22.558594c-2.695312 2.695312-3.117187 6.914062-1.007812 10.089843l12.390625 18.617188c-2.816406 5.3125-5.128906 10.882812-6.902344 16.628906l-21.917969 4.402344c-3.746093.75-6.4375 4.042969-6.425781 7.863281v32c0 3.800781 2.675781 7.078125 6.398438 7.839844l21.921874 4.398437c1.773438 5.75 4.085938 11.320313 6.902344 16.632813l-12.390625 18.617187c-2.109375 3.171875-1.6875 7.394531 1.007813 10.085938l22.558594 22.5625c2.695312 2.695312 6.914062 3.117187 10.089843 1.007812l18.617188-12.390625c2.277343 1.207032 4.703125 2.207032 7.101562 3.238282-1.4375 2.421874-2.199219 5.1875-2.207031 8.007812v136c0 8.835938 7.164062 16 16 16h48c8.835938 0 16-7.164062 16-16v-136c-.015625-2.816406-.785156-5.582031-2.230469-8 2.398438-1.03125 4.796875-2.03125 7.101563-3.238281l18.617187 12.390625c3.171875 2.109375 7.394531 1.6875 10.085938-1.007813l22.5625-22.558593c2.695312-2.695313 3.117187-6.917969 1.007812-10.089844l-12.390625-18.617188c2.816406-5.3125 5.128906-10.882812 6.902344-16.632812l21.917969-4.398438c3.738281-.75 6.429687-4.035156 6.425781-7.847656v-32c0-3.800781-2.675781-7.078125-6.398438-7.839844zm-105.601562 255.839844v-96h-16v96h-16v-136h48v136zm-24-240h8v47.199219c-15.417969-3.101563-27.570312-14.976563-31.027344-30.320313-3.457031-15.339844 2.429688-31.28125 15.027344-40.695312v15.816406c0 4.417969 3.582031 8 8 8zm32 0c4.417969 0 8-3.582031 8-8v-15.824219c12.605469 9.414063 18.496094 25.355469 15.039062 40.703125-3.457031 15.34375-15.617187 27.222656-31.039062 30.320313v-47.199219zm-8-16h-16v-7.015625l6.246094-24.984375h3.507812l6.246094 24.984375zm96 33.449219-20.296875 4.0625c-3.015625.605469-5.417969 2.890625-6.175781 5.871093-1.910156 7.625-4.945313 14.925782-9 21.65625-1.617188 2.65625-1.550782 6.003907.167968 8.59375l11.496094 17.261719-13.296875 13.296875-17.292969-11.496094c-2.589843-1.71875-5.941406-1.785156-8.59375-.167968-6.734374 4.054687-14.03125 7.089844-21.65625 9-1.550781.402344-2.945312 1.261718-4 2.472656h-7.351562v-24.640625c25.390625-3.574219 45.074219-23.996094 47.714844-49.5s-12.445313-49.527344-36.5625-58.226563l-3.390625-13.601562c-.902344-3.550781-4.097657-6.035156-7.761719-6.03125h-16c-3.667969 0-6.867188 2.496094-7.761719 6.054688l-3.390625 13.601562c-24.09375 8.714844-39.152344 32.722656-36.515625 58.210938 2.640625 25.484374 22.300781 45.898437 47.667969 49.492187v24.640625h-7.398438c-1.054687-1.210938-2.449218-2.070312-4-2.472656-7.625-1.910156-14.925781-4.945313-21.65625-9-2.65625-1.617188-6.003906-1.550782-8.59375.167968l-17.261718 11.496094-13.296875-13.296875 11.511719-17.292969c1.71875-2.589843 1.785156-5.941406.167968-8.59375-4.054687-6.734374-7.089844-14.03125-9-21.65625-.757812-2.980468-3.160156-5.265624-6.175781-5.871093l-20.296875-4.03125v-18.898438l20.296875-4.0625c3.015625-.605469 5.417969-2.890625 6.175781-5.871093 1.910156-7.625 4.945313-14.925782 9-21.65625 1.617188-2.65625 1.550782-6.003907-.167968-8.59375l-11.496094-17.261719 13.296875-13.296875 17.292969 11.496094c2.589843 1.71875 5.941406 1.785156 8.59375.167968 6.734374-4.054687 14.03125-7.089844 21.65625-9 2.980468-.757812 5.265624-3.160156 5.871093-6.175781l4.03125-20.296875h18.898438l4.0625 20.296875c.605469 3.015625 2.890625 5.417969 5.871093 6.175781 7.625 1.910156 14.925782 4.945313 21.65625 9 2.65625 1.617188 6.003907 1.550782 8.59375-.167968l17.261719-11.496094 13.296875 13.296875-11.496094 17.292969c-1.71875 2.589843-1.785156 5.941406-.167968 8.59375 4.054687 6.734374 7.089844 14.03125 9 21.65625.757812 2.980468 3.160156 5.265624 6.175781 5.871093l20.296875 4.03125zm0 0"/></svg>
