<svg width="1440" height="100" viewBox="0 0 1440 100" fill="none" xmlns="http://www.w3.org/2000/svg">
<path d="M0 20L34.3 26.6563C68.6 33.4375 137 46.5625 206 60C274.3 73.4375 343 86.5625 411 80C480 73.4375 549 46.5625 617 41.6563C685.7 36.5625 754 53.4375 823 53.3437C891.4 53.4375 960 36.5625 1029 36.6563C1097.1 36.5625 1166 53.4375 1234 55C1302.9 56.5625 1371 43.4375 1406 36.6563L1440 30V100H1405.7C1371.4 100 1303 100 1234 100C1165.7 100 1097 100 1029 100C960 100 891 100 823 100C754.3 100 686 100 617 100C548.6 100 480 100 411 100C342.9 100 274 100 206 100C137.1 100 69 100 34 100H0V20Z" fill="white"/>
</svg>
