<?xml version="1.0" encoding="iso-8859-1"?>
<!-- Generator: Adobe Illustrator 16.0.0, SVG Export Plug-In . SVG Version: 6.00 Build 0)  -->
<!DOCTYPE svg PUBLIC "-//W3C//DTD SVG 1.1//EN" "http://www.w3.org/Graphics/SVG/1.1/DTD/svg11.dtd">
<svg version="1.1" xmlns="http://www.w3.org/2000/svg" xmlns:xlink="http://www.w3.org/1999/xlink" x="0px" y="0px" width="512px"
	 height="512px" viewBox="0 0 512 512" fill="#5f6063" style="enable-background:new 0 0 512 512;" xml:space="preserve">
<g id="_x31_583_x2C__Chip_x2C__Circuit_Board_x2C__Cpu_x2C__Motherboard_x2C__Processor">
	<g>
		<path d="M490.48,164.244c5.638,0,10.2-4.562,10.2-10.195c0-5.628-4.563-10.195-10.2-10.195h-50.97v-20.39h50.97
			c5.638,0,10.2-4.562,10.2-10.195c0-5.628-4.563-10.195-10.2-10.195h-51.259c-1.992-15.773-14.523-28.299-30.291-30.296V21.514
			c0-5.628-4.572-10.19-10.2-10.19s-10.19,4.562-10.19,10.19v50.975h-20.39V21.514c0-5.628-4.572-10.19-10.2-10.19
			s-10.19,4.562-10.19,10.19v50.975h-20.39V21.514c0-5.628-4.572-10.19-10.2-10.19s-10.189,4.562-10.189,10.19v50.975H286.59V21.514
			c0-5.628-4.572-10.19-10.2-10.19S266.2,15.886,266.2,21.514v50.975h-20.393V21.514c0-5.628-4.567-10.19-10.195-10.19
			c-5.633,0-10.195,4.562-10.195,10.19v50.975h-20.39V21.514c0-5.628-4.567-10.19-10.195-10.19c-5.633,0-10.195,4.562-10.195,10.19
			v50.975h-20.39V21.514c0-5.628-4.562-10.19-10.195-10.19s-10.195,4.562-10.195,10.19v50.975h-20.39V21.514
			c0-5.628-4.562-10.19-10.195-10.19c-5.628,0-10.195,4.562-10.195,10.19v51.264c-15.773,1.997-28.299,14.522-30.296,30.296H21.517
			c-5.628,0-10.195,4.567-10.195,10.195c0,5.633,4.567,10.195,10.195,10.195h50.975v20.39H21.517
			c-5.628,0-10.195,4.567-10.195,10.195c0,5.633,4.567,10.195,10.195,10.195h50.975v20.39H21.517
			c-5.628,0-10.195,4.567-10.195,10.195c0,5.633,4.567,10.195,10.195,10.195h50.975v20.39H21.517
			c-5.628,0-10.195,4.562-10.195,10.195s4.567,10.195,10.195,10.195h50.975v20.39H21.517c-5.628,0-10.195,4.563-10.195,10.195
			c0,5.628,4.567,10.195,10.195,10.195h50.975v20.39H21.517c-5.628,0-10.195,4.563-10.195,10.195
			c0,5.628,4.567,10.194,10.195,10.194h50.975v20.386H21.517c-5.628,0-10.195,4.566-10.195,10.194
			c0,5.634,4.567,10.195,10.195,10.195h50.975v20.39H21.517c-5.628,0-10.195,4.567-10.195,10.195
			c0,5.633,4.567,10.195,10.195,10.195h51.264c1.997,15.773,14.523,28.299,30.296,30.296v51.265c0,5.633,4.567,10.194,10.195,10.194
			c5.633,0,10.195-4.562,10.195-10.194v-50.976h20.39v50.976c0,5.633,4.562,10.194,10.195,10.194s10.195-4.562,10.195-10.194
			v-50.976h20.39v50.976c0,5.633,4.562,10.194,10.195,10.194c5.628,0,10.195-4.562,10.195-10.194v-50.976h20.39v50.976
			c0,5.633,4.562,10.194,10.195,10.194c5.628,0,10.195-4.562,10.195-10.194v-50.976H266.2v50.976
			c0,5.633,4.562,10.194,10.189,10.194s10.2-4.562,10.2-10.194v-50.976h20.391v50.976c0,5.633,4.562,10.194,10.189,10.194
			s10.2-4.562,10.2-10.194v-50.976h20.39v50.976c0,5.633,4.563,10.194,10.19,10.194s10.2-4.562,10.2-10.194v-50.976h20.39v50.976
			c0,5.633,4.563,10.194,10.19,10.194s10.2-4.562,10.2-10.194v-51.265c15.768-1.997,28.299-14.522,30.291-30.296h51.259
			c5.638,0,10.2-4.563,10.2-10.195c0-5.628-4.563-10.195-10.2-10.195h-50.97v-20.39h50.97c5.638,0,10.2-4.562,10.2-10.195
			c0-5.628-4.563-10.194-10.2-10.194h-50.97v-20.386h50.97c5.638,0,10.2-4.566,10.2-10.194c0-5.633-4.563-10.195-10.2-10.195h-50.97
			v-20.39h50.97c5.638,0,10.2-4.567,10.2-10.195c0-5.633-4.563-10.195-10.2-10.195h-50.97v-20.39h50.97
			c5.638,0,10.2-4.563,10.2-10.195s-4.563-10.195-10.2-10.195h-50.97v-20.39h50.97c5.638,0,10.2-4.562,10.2-10.195
			c0-5.628-4.563-10.195-10.2-10.195h-50.97v-20.39H490.48z M419.12,404.502c0,8.059-6.554,14.613-14.612,14.613H107.495
			c-8.059,0-14.613-6.555-14.613-14.613v-297.01c0-8.054,6.554-14.613,14.613-14.613h297.013c8.059,0,14.612,6.56,14.612,14.613
			V404.502z"/>
		<circle cx="133.662" cy="133.659" r="10.195"/>
		<circle cx="133.662" cy="378.334" r="10.195"/>
		<path d="M378.34,123.464c-5.628,0-10.189,4.567-10.189,10.195c0,5.633,4.562,10.195,10.189,10.195s10.2-4.563,10.2-10.195
			C388.54,128.031,383.968,123.464,378.34,123.464z"/>
		<path d="M378.34,368.14c-5.628,0-10.189,4.567-10.189,10.195c0,5.633,4.562,10.194,10.189,10.194s10.2-4.562,10.2-10.194
			C388.54,372.707,383.968,368.14,378.34,368.14z"/>
		<path d="M306.98,154.049H174.442c-5.633,0-10.195,4.567-10.195,10.195c0,5.633,4.563,10.195,10.195,10.195H306.98
			c5.628,0,10.189-4.563,10.189-10.195C317.17,158.616,312.608,154.049,306.98,154.049z"/>
		<path d="M306.98,205.024H174.442c-5.633,0-10.195,4.567-10.195,10.195c0,5.633,4.563,10.195,10.195,10.195H306.98
			c5.628,0,10.189-4.562,10.189-10.195C317.17,209.592,312.608,205.024,306.98,205.024z"/>
		<path d="M266.2,256h-91.758c-5.633,0-10.195,4.562-10.195,10.195c0,5.628,4.563,10.195,10.195,10.195H266.2
			c5.628,0,10.189-4.567,10.189-10.195C276.39,260.562,271.828,256,266.2,256z"/>
	</g>
</g>
<g id="Layer_1">
</g>
</svg>
