<?xml version="1.0" encoding="iso-8859-1"?>
<!-- Generator: Adobe Illustrator 19.0.0, SVG Export Plug-In . SVG Version: 6.00 Build 0)  -->
<svg version="1.1" id="Capa_1" xmlns="http://www.w3.org/2000/svg" xmlns:xlink="http://www.w3.org/1999/xlink" x="0px" y="0px"
	 viewBox="0 0 512.001 512.001" style="enable-background:new 0 0 512.001 512.001;" xml:space="preserve">
<path style="fill:#80868b;" d="M511.07,200.097c-1.757-2.56-3.849-4.315-12.576-4.979c-2.287-0.176-9.845-0.423-22.56-0.423
	c-33.421,0-56.13,10.139-67.755,30.157c3.203-20.138-16.422-30.216-58.928-30.216c-49.899,0-81.059,20.094-93.467,60.277
	c-4.615,14.945-5.085,27.184-1.459,36.749l-11.778,0.792c-61.522,4.711-72.882-2.046-61.661-38.466
	c7.619-24.671,26.487-35.776,56.64-35.776c15.629-0.032,30.848,1.643,30.856,1.643v-0.006c2.096-0.131,3.023-2.312,2.79-4.12
	l-0.303-2.359l-1.069-8.293c-0.707-5.448-4.763-8.682-12.172-9.682c-6.773-0.457-11.814-0.76-19.23-0.76
	c-34.044,0-65.184,9.543-82.809,38.822c5.705-25.882-12.516-38.822-54.729-38.822c-23.461,0-40.286,0.661-50.489,1.992
	c-7.823,0.972-12.591,4.217-14.318,9.711l-3.34,10.654c-0.609,1.952,0.331,2.919,2.835,2.919l0.075-0.013
	c1.854-0.235,8.997-0.936,21.195-1.914c26.272-2.099,72.487-7.319,65.339,15.502c-0.793,2.575-2.561,4.171-5.268,4.789
	c-21.969,3.639-39.41,6.267-52.31,7.857c-36.3,4.62-57.273,15.919-62.921,33.934c-7.747,24.756,11.667,37.139,58.218,37.139
	c23.22,0,42.711-1.361,58.466-4.008c9.078-1.522,13.679-3.849,15.504-9.697l8.657-27.595c-0.901,27.576,18.441,41.462,58.058,41.462
	c47.081,0,52.48-2.953,54.893-11.202l1.757-8.699c8.44,13.158,26.961,19.738,55.551,19.738c30.152,0,47.737-0.847,52.755-2.528
	c4.202-1.336,6.798-3.506,7.723-6.523c0,0-0.231,0.216,3.98-13.446c0.631-2.035-0.313-3.008-2.788-2.922
	c-26.328,1.262-38.152,1.992-49.549,1.992c-13.704,0-23.104-0.927-28.245-2.799c-7.624-2.932-11.25-8.777-10.905-17.576
	l61.132-7.838c27.4-3.502,45.732-11.934,55.016-25.3l-20.714,72.139c-0.883,3.05,1.047,4.605,4.507,4.605h25.298
	c4.421,0,6-2.282,6.55-4.194l22.361-77.868c2.943-10.247,12.368-15.231,28.81-15.231c14.841,0,26.028,0.131,33.184,0.394
	c0.191,0.013,0.373,0.021,0.554,0.021c1.397,0,3.921-0.508,5.175-3.896l3.929-10.692C512.281,203.479,512.133,201.65,511.07,200.097
	z M103.255,293.779c-7.905,1.236-19.248,1.857-34.068,1.857c-25.712,0-36.959-5.187-33.702-15.569
	c2.339-7.448,9.074-11.928,20.267-13.435l58.49-7.857L103.255,293.779z M373.604,230.69c-2.46,7.984-13.908,13.446-34.311,16.38
	l-48.728,6.917l1.234-3.989c4.033-13.124,9.779-22.075,17.187-26.824c7.404-4.741,19.465-7.129,36.176-7.129
	C367.141,216.046,376.615,220.941,373.604,230.69z"/>
<g>
	<path style="fill:#80868b;" d="M35.549,219.912l0.075-0.013c1.66-0.211,7.568-0.795,17.532-1.616
		c-0.044-0.368,0.009-0.798,0.163-1.291l3.34-10.654c1.728-5.494,6.495-8.739,14.318-9.711c7.931-1.035,19.883-1.663,35.824-1.892
		c-1.93-0.061-3.898-0.1-5.94-0.1c-23.461,0-40.286,0.661-50.489,1.992c-7.823,0.972-12.591,4.217-14.318,9.711l-3.34,10.654
		C32.105,218.944,33.045,219.912,35.549,219.912z"/>
	<path style="fill:#80868b;" d="M324.218,317.159c0.002,0,0.005,0,0.007,0c0.128-0.001,0.255-0.002,0.382-0.004
		c1.103-0.01,2.187-0.021,3.247-0.033c0.019,0,0.039,0,0.058,0c0.009,0,0.018,0,0.026,0c-25.516-0.798-42.228-7.349-50.122-19.654
		c-2.375-4.779-9.793-15.464-1.427-42.554c11.604-37.579,39.611-57.584,84.005-60.02c-0.008-0.001-0.016-0.001-0.024-0.001
		c-22.467-1.086-46.141,0.937-66.031,11.404v-0.022c-7.501,3.962-14.052,8.942-19.666,14.927v0.015
		c-9.007,9.619-14.983,21.053-18.888,33.697c-4.615,14.945-5.085,27.184-1.459,36.749c2.401,4.719,5.613,14.938,24.706,21.15
		c0.001-0.003,0.002-0.006,0.003-0.008C293.464,317.499,308.93,317.289,324.218,317.159z"/>
	<path style="fill:#80868b;" d="M373.604,230.69c-2.23,7.237-11.871,12.395-28.846,15.483l0.022,0.008
		c0,0,47.704-6.067,49.894-17.658c1-8.305-8.625-12.477-28.907-12.477c-3.879,0-7.495,0.134-10.873,0.391
		C369.888,217.77,376.125,222.528,373.604,230.69z"/>
	<path style="fill:#80868b;" d="M401.772,312.406l20.714-72.139c3.579-12.463,6.298-15.415,6.298-15.415
		c10.878-18.731,31.461-28.81,61.443-30.029c-0.006,0-0.013,0-0.019,0c-14.772-0.305-22.09-0.148-29.49,0.654
		c-0.038,0.004-0.075,0.009-0.112,0.013c-10.523,1.151-19.714,3.55-27.564,7.179c-0.001-0.002-0.003-0.004-0.005-0.007
		c-10.887,5.033-19.192,12.435-24.857,22.19l-6.298,15.415l-20.714,72.139c-0.883,3.05,1.047,4.605,4.507,4.605
		c7.795,0,12.977,0,20.605,0C402.828,317.01,400.889,315.456,401.772,312.406z"/>
	<path style="fill:#80868b;" d="M130.63,256.663l-16.388,2.112l-10.988,35.005l18.512-2.381c0,0,3.073-0.729,3.977-3.597l0,0
		l8.463-26.865C134.932,258.633,133.025,256.354,130.63,256.663z"/>
	<path style="fill:#80868b;" d="M21.174,294.889l-0.013,0.001c-0.477-2.622-1.079-6.109,0.361-12.108
		c2.05-11.194,9.727-27.31,35.767-35.595c-31.825,5.159-50.373,16.107-55.632,32.879c-7.747,24.756,11.667,37.139,58.218,37.139
		c4.273,0,8.419-0.047,12.439-0.139C41.412,315.993,24.371,308.595,21.174,294.889z"/>
	<path style="fill:#80868b;" d="M122.158,233.487c-0.793,2.575-2.561,4.171-5.268,4.789c0,0,25.365-0.778,26.56-10.179
		c-0.744-8.028-10.75-12.051-30.053-12.051c-3.238,0-7.186,0.112-11.822,0.332C118.437,217.754,125.299,223.457,122.158,233.487z"/>
	<path style="fill:#80868b;" d="M163.107,275.906c5.726-51.214,35.159-78.124,86.446-80.999c-3.588-0.177-7.124-0.272-11.156-0.272
		c-18.811,0-38.372,2.937-54.933,12.015l-0.001-0.007c-11.661,6.389-20.957,15.322-27.875,26.814l-13.087,42.449
		c-0.41,12.548,3.387,22.251,11.364,29.111c-0.001,0.001-0.001,0.001-0.001,0.002c0.924,0.809,2.519,2.03,4.002,2.986
		c0.001-0.003,0.002-0.007,0.003-0.011c9.669,6.236,23.889,9.374,42.69,9.374c4.819,0,9.559-0.046,14.067-0.14
		C179.428,315.742,162.258,301.917,163.107,275.906z"/>
</g>
<g>
</g>
<g>
</g>
<g>
</g>
<g>
</g>
<g>
</g>
<g>
</g>
<g>
</g>
<g>
</g>
<g>
</g>
<g>
</g>
<g>
</g>
<g>
</g>
<g>
</g>
<g>
</g>
<g>
</g>
</svg>
