<?xml version="1.0" encoding="iso-8859-1"?>
<!-- Generator: Adobe Illustrator 19.0.0, SVG Export Plug-In . SVG Version: 6.00 Build 0)  -->
<svg version="1.1" id="Capa_1" xmlns="http://www.w3.org/2000/svg" xmlns:xlink="http://www.w3.org/1999/xlink" x="0px" y="0px"
	 viewBox="0 0 512 512" style="enable-background:new 0 0 512 512;" xml:space="preserve">
<g>
	<path style="fill:#80868b;" d="M48.129,237.862L0.166,312.124c-0.441,0.682,0.049,1.582,0.861,1.582h31.276
		c0.347,0,0.671-0.176,0.86-0.467L79.364,242.1c0.417-0.642,0.009-1.498-0.752-1.578l-29.515-3.123
		C48.713,237.358,48.338,237.537,48.129,237.862z"/>
	<path style="fill:#80868b;" d="M56.611,226.427c-0.803,0-1.294-0.88-0.873-1.564c2.849-4.619,11.188-18.071,13.567-21.16
		c2.76-3.783,6.419-5.396,10.263-5.396h44.707c0.566,0,1.025,0.459,1.025,1.025v18.609c0,1.123,1.549,1.436,1.969,0.394
		c1.214-3.012,2.963-6.528,5.178-8.816c4.27-4.432,9.968-10.572,22.978-11.394c0.027-0.002,0.054-0.003,0.081-0.003h94.802
		c0.566,0,1.025,0.459,1.025,1.025V225.4c0,0.566-0.459,1.025-1.025,1.025H56.611V226.427z"/>
	<path style="fill:#80868b;" d="M512,225.332v-26.276c0-0.566-0.459-1.025-1.025-1.025H409.467c-0.027,0-0.054,0.001-0.081,0.003
		c-14.69,0.931-25.75,9.932-30.065,25.893c-0.023,0.087-0.034,0.172-0.034,0.262v1.122c0,0.566,0.459,1.025,1.025,1.025
		l130.662,0.022C511.541,226.357,512,225.898,512,225.332z"/>
	<path style="fill:#80868b;" d="M283.973,226.335h-26.612c-0.566,0-1.025-0.459-1.025-1.025v-26.117
		c0-0.566,0.459-1.025,1.025-1.025h26.612c0.566,0,1.025,0.459,1.025,1.025v26.117C284.999,225.876,284.54,226.335,283.973,226.335z
		"/>
	<path style="fill:#80868b;" d="M378.054,226.335h-26.586c-0.566,0-1.025-0.459-1.025-1.025v-26.117
		c0-0.566,0.459-1.025,1.025-1.025h26.586c0.566,0,1.025,0.459,1.025,1.025v26.117C379.079,225.876,378.62,226.335,378.054,226.335z
		"/>
	<path style="fill:#80868b;" d="M378.114,245.732l-26.106-1.544c-0.589-0.035-1.086,0.433-1.086,1.024v31.591
		c0,0-0.085,9.413-9.281,9.413h-48.336c-0.038,0-0.07-0.001-0.108-0.005c-0.717-0.077-8.138-1.076-8.138-9.321v-36.247
		c0-0.538-0.416-0.984-0.952-1.023l-26.39-1.886c-0.594-0.042-1.098,0.428-1.098,1.023v48.904c0,0.071,0.007,0.143,0.02,0.213
		c4.639,23.941,26.509,25.785,26.509,25.785s2.109,0.141,2.565,0.18c0.028,0.002,0.049,0.003,0.077,0.003h65.27
		c0.033,0,0.061-0.001,0.093-0.004c1.28-0.117,27.924-2.862,27.924-28.791v-38.291C379.079,246.213,378.656,245.764,378.114,245.732
		z"/>
	<path style="fill:#80868b;" d="M97.232,313.723h132.921c0.073,0,0.148-0.007,0.219-0.022c23.247-4.678,25.679-25.589,25.679-25.589
		c1.038-5.895,0.521-10.724,0.462-11.229c-0.003-0.028-0.006-0.051-0.011-0.079c-0.741-4.268-8.817-22.727-26.29-24.336
		c-9.702-0.893-90.571-7.258-102.084-8.163c-0.683-0.054-1.23,0.569-1.076,1.237c1.927,8.335,5.842,12.665,8.488,15.196
		c6.205,5.895,15.937,7.731,16.687,7.865c0.031,0.005,0.05,0.008,0.081,0.011c3.024,0.278,71.633,5.896,71.633,5.896
		c2.204,0.115,6.382,0.667,6.332,6.076c0,0.653-0.603,5.423-5.914,5.423h-99.255c-0.566,0-1.025-0.459-1.025-1.025v-40.065
		c0-0.538-0.415-0.984-0.951-1.023l-25.822-1.871c-0.594-0.043-1.099,0.427-1.099,1.023V312.7
		C96.207,313.264,96.666,313.723,97.232,313.723z"/>
	<path style="fill:#80868b;" d="M379.347,286.858c0.001-0.565,0.46-1.023,1.025-1.023h98.565c1.802,0,4.436-1.019,4.883-1.448
		c0.983-0.944,1.76-2.568,1.76-4.132c0-5.397-4.496-5.631-6.752-5.746c0,0-69.41-5.732-72.373-5.97
		c-0.029-0.002-0.047-0.005-0.076-0.01c-0.713-0.116-9.908-1.714-16.125-7.635c-2.661-2.5-6.144-5.217-8.86-13.592
		c-0.223-0.689,0.309-1.394,1.032-1.352c11.954,0.699,92.825,5.443,102.44,6.333c17.547,1.662,25.765,18.84,26.505,24.556
		c0,0,0.753,5.166-0.159,11.509c0,0-3.631,24.125-29.324,25.619c-0.026,0.001-0.053,0.002-0.079,0.002H380.315
		c-0.567,0-1.027-0.46-1.025-1.028L379.347,286.858z"/>
</g>
<g>
	<path style="fill:#80868b;" d="M20.805,312.124l46.985-72.748l-18.692-1.978c-0.385-0.041-0.759,0.139-0.969,0.463L0.166,312.124
		c-0.441,0.682,0.049,1.581,0.861,1.581h20.639C20.854,313.706,20.364,312.807,20.805,312.124z"/>
	<path style="fill:#80868b;" d="M399.927,225.196c0-0.093,0.01-0.182,0.034-0.272c4.527-17.392,16.141-25.974,30.065-26.891
		c0.027-0.002,0.054-0.003,0.081-0.003h-20.639c-0.027,0-0.054,0.001-0.081,0.003c-14.689,0.931-25.751,9.932-30.065,25.893
		c-0.023,0.087-0.034,0.172-0.034,0.262v1.122c0,0.566,0.459,1.025,1.025,1.025l19.614,0.003V225.196z"/>
	<path style="fill:#80868b;" d="M276.976,225.31v-26.118c0-0.566,0.459-1.025,1.025-1.025h-20.639c-0.566,0-1.025,0.459-1.025,1.025
		v26.118c0,0.566,0.459,1.025,1.025,1.025h20.639C277.435,226.335,276.976,225.876,276.976,225.31z"/>
	<path style="fill:#80868b;" d="M371.081,225.31v-26.118c0-0.566,0.459-1.025,1.025-1.025h-20.639c-0.566,0-1.025,0.459-1.025,1.025
		v26.118c0,0.566,0.459,1.025,1.025,1.025h20.639C371.54,226.335,371.081,225.876,371.081,225.31z"/>
	<path style="fill:#80868b;" d="M371.562,276.803v-31.458l-19.553-1.157c-0.589-0.035-1.086,0.434-1.086,1.024v31.591
		c0,0-0.085,9.413-9.281,9.413h20.639C371.477,286.216,371.562,276.803,371.562,276.803z"/>
	<path style="fill:#80868b;" d="M303.789,313.659c0,0-21.87-1.844-26.509-25.785c-0.013-0.07-0.02-0.142-0.02-0.213v-48.53
		l-19.541-1.397c-0.594-0.042-1.098,0.428-1.098,1.023v48.904c0,0.071,0.007,0.143,0.02,0.213
		c4.639,23.941,26.509,25.785,26.509,25.785s2.109,0.141,2.565,0.18c0.028,0.002,0.049,0.003,0.077,0.003h20.639
		c-0.028,0-0.049-0.001-0.077-0.003C305.898,313.8,303.789,313.659,303.789,313.659z"/>
	<path style="fill:#80868b;" d="M116.846,312.698V243.44l-19.54-1.416c-0.594-0.043-1.099,0.427-1.099,1.023v69.652
		c0,0.566,0.459,1.025,1.025,1.025h20.639C117.305,313.723,116.846,313.264,116.846,312.698z"/>
	<path style="fill:#80868b;" d="M399.929,312.942l0.057-26.084c0.001-0.565,0.46-1.023,1.025-1.023h-20.639
		c-0.565,0-1.024,0.458-1.025,1.023l-0.057,26.084c-0.001,0.567,0.458,1.027,1.025,1.027h20.639
		C400.387,313.969,399.928,313.509,399.929,312.942z"/>
	<path style="fill:#80868b;" d="M155.506,198.031c-0.027,0-0.054,0.001-0.081,0.003c-3.719,0.235-6.824,0.914-9.485,1.854v0.106
		c-6.645,2.346-10.445,6.363-13.492,9.526c-2.215,2.288-3.964,5.804-5.178,8.816c-0.42,1.042-1.968,0.73-1.969-0.393l0.011,8.485
		h22.209c-1.638-7.534,4.254-15.423,4.278-15.455c0.412-0.553,0.838-1.079,1.288-1.544c4.27-4.432,9.968-10.572,22.978-11.394
		c0.027-0.002,0.054-0.003,0.081-0.003L155.506,198.031L155.506,198.031z"/>
	<path style="fill:#80868b;" d="M69.305,203.611c-2.379,3.089-10.718,16.542-13.567,21.16c-0.422,0.683,0.07,1.564,0.873,1.564
		H77.25c-0.803,0-1.294-0.881-0.873-1.564c2.849-4.619,11.188-18.071,13.566-21.16c2.76-3.783,6.419-5.396,10.263-5.396H79.569
		C75.724,198.214,72.066,199.828,69.305,203.611z"/>
	<path style="fill:#80868b;" d="M135.541,260.737c6.205,5.895,15.937,7.73,16.687,7.865c0.031,0.005,0.05,0.008,0.081,0.011
		c1.042,0.096,9.87,0.826,20.996,1.741c-19.373-8.919-22.582-24.269-22.582-24.269l0,0c-10.867-0.858-19.401-1.53-22.595-1.78
		c-0.683-0.054-1.23,0.568-1.076,1.236C128.98,253.875,132.895,258.206,135.541,260.737z"/>
	<path style="fill:#80868b;" d="M390.254,260.894c6.217,5.921,15.412,7.519,16.125,7.635c0.029,0.005,0.047,0.008,0.076,0.01
		c0.879,0.071,7.603,0.624,16.628,1.369c-16.914-9.101-20.132-22.75-20.132-22.75l0,0c-9.809-0.581-17.451-1.028-20.526-1.209
		c-0.723-0.042-1.255,0.663-1.032,1.352C384.11,255.677,387.593,258.394,390.254,260.894z"/>
</g>
<g>
</g>
<g>
</g>
<g>
</g>
<g>
</g>
<g>
</g>
<g>
</g>
<g>
</g>
<g>
</g>
<g>
</g>
<g>
</g>
<g>
</g>
<g>
</g>
<g>
</g>
<g>
</g>
<g>
</g>
</svg>
