<?xml version="1.0" encoding="iso-8859-1"?>
<!-- Generator: Adobe Illustrator 19.0.0, SVG Export Plug-In . SVG Version: 6.00 Build 0)  -->
<svg version="1.1" id="Capa_1" xmlns="http://www.w3.org/2000/svg" xmlns:xlink="http://www.w3.org/1999/xlink" x="0px" y="0px"
	 viewBox="0 0 512 512" style="enable-background:new 0 0 512 512;" xml:space="preserve">
<g>
	<path style="fill:#80868b;" d="M469.424,314.685c-27.094,0.174-52.751,0.392-59.905-0.244
		c-14.473-1.259-24.143-10.726-25.266-24.657c-0.758-9.144-0.758-16.719-0.039-23.928c1.312-13.565,12.659-26.482,25.305-27.104
		c5.752-0.309,15.48-0.167,101.045-0.003c0.787,0.002,1.436-0.636,1.436-1.424v-23.647c0-0.786-0.645-1.423-1.431-1.424
		c-81.944-0.091-91.972-0.356-102.159,0.002c-30.206,1.163-49.175,22.692-50.814,52.993c-1.237,21.639-0.48,44.819,14.97,60.47
		c9.037,9.199,22.793,15.027,35.858,15.204c9.943,0.124,90.454,0.018,102.159,0.002c0.786-0.001,1.417-0.638,1.417-1.424V315.87
		c0-0.789-0.634-1.427-1.422-1.424C504.679,314.47,481.871,314.567,469.424,314.685"/>
	<path style="fill:#80868b;" d="M181.049,215.1v23.622c0,0.786,0.638,1.424,1.424,1.424h60.181c0.786,0,1.424,0.638,1.424,1.424
		v97.468c0,0.786,0.638,1.424,1.424,1.424h23.756c0.786,0,1.424-0.638,1.424-1.424V241.57c0-0.786,0.638-1.424,1.424-1.424h60.179
		c0.786,0,1.424-0.638,1.424-1.424V215.1c0-0.786-0.638-1.424-1.424-1.424H182.473C181.687,213.676,181.049,214.313,181.049,215.1z"
		/>
	<path style="fill:#80868b;" d="M153.418,263.734c-0.392-29.399-22.343-50.045-50.815-51.559c-8.832-0.499-43.632-0.337-51.802,0
		c-9.837,0.417-17.393,2.987-22.007,5.684c-0.948,0.554-2.131-0.115-2.139-1.213c-0.062-8.816-0.044-37.491-0.038-44.211
		c0.001-0.787-0.637-1.418-1.424-1.418H1.424c-0.786,0-1.424,0.638-1.424,1.424v167.058c0,0.786,0.638,1.424,1.424,1.424h23.718
		c0.79,0,1.43-0.64,1.424-1.43c-0.071-9.959-0.466-68.761,0.078-75.691c1.055-13.457,11.266-24.035,24.291-25.17
		c10.442-0.893,41.781-0.65,51.613,0.014c13.498,0.932,23.467,11.482,24.251,25.696c0.235,4.796,0.029,65.084-0.007,75.158
		c-0.003,0.788,0.636,1.423,1.424,1.423h23.78c0.786,0,1.423-0.635,1.424-1.421c0.009-10.051,0.061-70.168-0.001-75.767"/>
</g>
<g>
	<path style="fill:#80868b;" d="M425.595,340.923c-13.065-0.177-26.821-6.005-35.858-15.204
		c-15.45-15.651-16.207-38.831-14.97-60.47c1.639-30.3,20.608-51.83,50.814-52.993c2.572-0.09,5.135-0.141,8.845-0.164
		c-15.432-0.039-20.706-0.022-26.016,0.164c-30.206,1.163-49.175,22.692-50.814,52.993c-1.237,21.639-0.48,44.819,14.97,60.47
		c9.037,9.199,22.792,15.027,35.858,15.204c4.265,0.053,21.519,0.064,40.755,0.058C437.572,340.976,428.522,340.96,425.595,340.923z
		"/>
	<path style="fill:#80868b;" d="M261.249,339.038V241.57c0-0.786-0.638-1.424-1.424-1.424h-17.171c0.787,0,1.424,0.638,1.424,1.424
		v97.468c0,0.786,0.638,1.424,1.424,1.424h17.171C261.886,340.462,261.249,339.824,261.249,339.038z"/>
	<path style="fill:#80868b;" d="M198.22,238.722V215.1c0-0.786,0.638-1.424,1.424-1.424h-17.171c-0.787,0-1.424,0.638-1.424,1.424
		v23.622c0,0.786,0.638,1.424,1.424,1.424h17.171C198.858,240.146,198.22,239.508,198.22,238.722z"/>
	<path style="fill:#80868b;" d="M17.171,339.499V172.441c0-0.786,0.638-1.424,1.424-1.424H1.424c-0.787,0-1.424,0.638-1.424,1.424
		v167.058c0,0.786,0.638,1.424,1.424,1.424h17.171C17.808,340.923,17.171,340.285,17.171,339.499z"/>
	<path style="fill:#80868b;" d="M143.963,339.5c0.036-10.074,0.242-70.362,0.007-75.158c-0.784-14.215-10.752-24.764-24.25-25.696
		c-6.664-0.45-23.203-0.706-36.424-0.547c8.039,0.086,15.346,0.283,19.253,0.547c13.498,0.932,23.466,11.482,24.25,25.696
		c0.235,4.796,0.029,65.084-0.007,75.158c-0.003,0.788,0.635,1.423,1.424,1.423h17.171
		C144.599,340.923,143.96,340.288,143.963,339.5z"/>
</g>
<g>
</g>
<g>
</g>
<g>
</g>
<g>
</g>
<g>
</g>
<g>
</g>
<g>
</g>
<g>
</g>
<g>
</g>
<g>
</g>
<g>
</g>
<g>
</g>
<g>
</g>
<g>
</g>
<g>
</g>
</svg>
