<?xml version="1.0" encoding="iso-8859-1"?>
<!-- Generator: Adobe Illustrator 19.0.0, SVG Export Plug-In . SVG Version: 6.00 Build 0)  -->
<svg version="1.1" id="Capa_1" xmlns="http://www.w3.org/2000/svg" xmlns:xlink="http://www.w3.org/1999/xlink" x="0px" y="0px"
	 viewBox="0 0 512.002 512.002" style="enable-background:new 0 0 512.002 512.002;" xml:space="preserve">
<g>
	<path style="fill:#80868b;" d="M88.658,272.312c-48.741-60.261-45.543-56.775-46.755-56.775H1.746
		c-0.964,0-1.746,0.782-1.746,1.746v77.706c0,0.964,0.782,1.746,1.746,1.746h21.196c0.964,0,1.746-0.782,1.746-1.746v-54.981
		c0-1.645,2.067-2.377,3.103-1.098c49.387,61.006,46.416,57.825,47.644,57.825h39.302c0.964,0,1.746-0.782,1.746-1.746v-77.706
		c0-0.964-0.782-1.746-1.746-1.746h-21.23c-0.964,0-1.746,0.782-1.746,1.746v53.932C91.761,272.86,89.693,273.592,88.658,272.312z"
		/>
	<path style="fill:#80868b;" d="M159.475,214.19c-21.866,0-33.071,3.858-33.071,26.154c0,37.019-1.315,42.674,5.488,50.193
		c8.464,9.028,20.653,7.275,69.796,7.275c21.95,0,33.054-3.897,33.054-26.167c0-38.085,1.142-42.885-5.458-50.197
		C220.762,212.436,208.35,214.19,159.475,214.19z M211.45,268.387c0,4.738-0.514,6.2-1.817,7.326
		c-2.207,1.945-3.73,1.475-49.117,1.475c-5.648,0-7.629-0.316-9.02-1.475c-2.277-2.096-1.775-3.744-1.775-32.114
		c0-8.427,1.983-8.814,10.795-8.814c45.784,0,46.977-0.474,49.117,1.509C211.981,238.299,211.45,239.805,211.45,268.387z"/>
	<path style="fill:#80868b;" d="M244.84,217.282v77.707c0,0.964,0.782,1.746,1.746,1.746h22.33c0.964,0,1.746-0.782,1.746-1.746
		c0-2.457,0-78.745,0-77.707c0-0.964-0.782-1.746-1.746-1.746h-22.33C245.621,215.536,244.84,216.317,244.84,217.282z"/>
	<path style="fill:#80868b;" d="M343.464,215.536c-30.333,0-28.896-0.247-29.67,0.442l-41.676,37.127
		c-0.777,0.692-0.78,1.906-0.006,2.602l45.162,40.58c0.32,0.288,0.736,0.447,1.167,0.447h31.009c1.633,0,2.372-2.042,1.117-3.087
		l-46.588-38.799c-0.84-0.7-0.838-1.991,0.005-2.687l40.591-33.533C345.838,217.585,345.101,215.536,343.464,215.536z"/>
	<path style="fill:#80868b;" d="M360.746,296.735h22.376c0.964,0,1.746-0.782,1.746-1.746v-77.707c0-0.964-0.782-1.746-1.746-1.746
		h-22.376c-0.964,0-1.746,0.782-1.746,1.746v77.707C359,295.954,359.782,296.735,360.746,296.735z"/>
	<path style="fill:#80868b;" d="M466.493,215.537c-32.538,0-30.913-0.336-31.603,0.889l-43.774,77.707
		c-0.656,1.164,0.185,2.603,1.521,2.603h24.455c0.643,0,1.233-0.353,1.538-0.919l6.603-12.278c0.304-0.566,0.895-0.919,1.538-0.919
		h47.868c0.641,0,1.231,0.351,1.536,0.915l6.644,12.285c0.305,0.564,0.894,0.915,1.536,0.915h25.899
		c1.336,0,2.176-1.439,1.521-2.602l-43.759-77.707C467.705,215.877,467.124,215.537,466.493,215.537z M436.091,262.406l13.104-24.03
		c0.662-1.214,2.405-1.213,3.066,0.001l13.077,24.03c0.633,1.163-0.209,2.58-1.533,2.58h-26.181
		C436.299,264.987,435.457,263.569,436.091,262.406z"/>
	<path style="fill:#80868b;" d="M88.658,272.312c-48.741-60.261-45.543-56.775-46.755-56.775H1.746
		c-0.964,0-1.746,0.782-1.746,1.746v77.706c0,0.964,0.782,1.746,1.746,1.746h21.196c0.964,0,1.746-0.782,1.746-1.746v-54.981
		c0-1.645,2.067-2.377,3.103-1.098c49.387,61.006,46.416,57.825,47.644,57.825h39.302c0.964,0,1.746-0.782,1.746-1.746v-77.706
		c0-0.964-0.782-1.746-1.746-1.746h-21.23c-0.964,0-1.746,0.782-1.746,1.746v53.932C91.761,272.86,89.693,273.592,88.658,272.312z"
		/>
	<path style="fill:#80868b;" d="M159.475,214.19c-21.866,0-33.071,3.858-33.071,26.154c0,37.019-1.315,42.674,5.488,50.193
		c8.464,9.028,20.653,7.275,69.796,7.275c21.95,0,33.054-3.897,33.054-26.167c0-38.085,1.142-42.885-5.458-50.197
		C220.762,212.436,208.35,214.19,159.475,214.19z M211.45,268.387c0,4.738-0.514,6.2-1.817,7.326
		c-2.207,1.945-3.73,1.475-49.117,1.475c-5.648,0-7.629-0.316-9.02-1.475c-2.277-2.096-1.775-3.744-1.775-32.114
		c0-8.427,1.983-8.814,10.795-8.814c45.784,0,46.977-0.474,49.117,1.509C211.981,238.299,211.45,239.805,211.45,268.387z"/>
</g>
<g>
	<path style="fill:#80868b;" d="M209.633,236.294c2.347,2.005,1.817,3.511,1.817,32.093c0,4.738-0.514,6.2-1.817,7.326
		c-1.265,1.115-2.309,1.436-11.517,1.508c24.113,0.059,25.453,0.057,27.228-1.508c1.303-1.125,1.817-2.588,1.817-7.326
		c0-28.582,0.53-30.088-1.817-32.093c-1.725-1.598-2.841-1.6-27.181-1.541C207.479,234.825,208.4,235.152,209.633,236.294z"/>
	<path style="fill:#80868b;" d="M147.603,290.537c-6.803-7.519-5.488-13.173-5.488-50.193c0-22.297,11.205-26.154,33.071-26.154
		c9.176,0,17.066-0.062,23.887-0.103c-9.605-0.115-22.313,0.103-39.598,0.103c-21.866,0-33.071,3.858-33.071,26.154
		c0,37.019-1.315,42.673,5.488,50.193c6.877,7.335,16.213,7.553,45.831,7.377C160.129,297.704,153.079,296.378,147.603,290.537z"/>
</g>
<path id="SVGCleanerId_0" style="fill:#80868b;" d="M244.84,217.282v77.707c0,0.964,0.782,1.746,1.746,1.746h22.33
	c0.964,0,1.746-0.782,1.746-1.746c0-2.457,0-78.745,0-77.707c0-0.964-0.782-1.746-1.746-1.746h-22.33
	C245.621,215.536,244.84,216.317,244.84,217.282z"/>
<path style="fill:#80868b;" d="M343.464,215.536c-30.333,0-28.896-0.247-29.67,0.442l-41.676,37.127
	c-0.777,0.692-0.78,1.906-0.006,2.602l45.162,40.58c0.32,0.288,0.736,0.447,1.167,0.447h31.009c1.633,0,2.372-2.042,1.117-3.087
	l-46.588-38.799c-0.84-0.7-0.838-1.991,0.005-2.687l40.591-33.533C345.838,217.585,345.101,215.536,343.464,215.536z"/>
<path style="fill:#80868b;" d="M290.751,255.707c-0.774-0.696-0.771-1.91,0.006-2.602l41.676-37.127
	c0.304-0.271,0.275-0.396,1.951-0.45c-20.937-0.036-19.903-0.161-20.59,0.45l-41.676,37.127c-0.777,0.692-0.78,1.906-0.006,2.602
	l45.162,40.58c0.32,0.288,0.736,0.447,1.167,0.447h18.638c-0.431,0-0.846-0.159-1.167-0.447L290.751,255.707z"/>
<path style="fill:#80868b;" d="M360.746,296.735h22.376c0.964,0,1.746-0.782,1.746-1.746v-77.707c0-0.964-0.782-1.746-1.746-1.746
	h-22.376c-0.964,0-1.746,0.782-1.746,1.746v77.707C359,295.954,359.782,296.735,360.746,296.735z"/>
<path style="fill:#80868b;" d="M376.032,294.989v-77.707c0-0.964,0.781-1.746,1.746-1.746h-17.032c-0.964,0-1.746,0.782-1.746,1.746
	v77.707c0,0.964,0.781,1.746,1.746,1.746h17.032C376.814,296.735,376.032,295.953,376.032,294.989z"/>
<path style="fill:#80868b;" d="M466.493,215.537c-32.538,0-30.913-0.336-31.603,0.889l-43.774,77.707
	c-0.656,1.164,0.185,2.603,1.521,2.603h24.455c0.643,0,1.233-0.353,1.538-0.919l6.603-12.278c0.304-0.566,0.895-0.919,1.538-0.919
	h47.868c0.641,0,1.231,0.351,1.536,0.915l6.644,12.285c0.305,0.564,0.894,0.915,1.536,0.915h25.899c1.336,0,2.176-1.439,1.521-2.602
	l-43.759-77.707C467.705,215.877,467.124,215.537,466.493,215.537z M436.091,262.406l13.104-24.03
	c0.662-1.214,2.405-1.213,3.066,0.001l13.077,24.03c0.633,1.163-0.209,2.58-1.533,2.58h-26.181
	C436.299,264.987,435.457,263.569,436.091,262.406z"/>
<g>
	<path style="fill:#80868b;" d="M409.145,294.132l43.774-77.707c0.339-0.601,0.129-0.826,3.666-0.899
		c-22.268-0.046-21.084-0.185-21.695,0.899l-43.774,77.707c-0.655,1.164,0.185,2.603,1.521,2.603h18.029
		C409.33,296.735,408.49,295.296,409.145,294.132z"/>
	<path style="fill:#80868b;" d="M17.858,294.989v-77.706c0-0.964,0.781-1.746,1.746-1.746H1.746c-0.964,0-1.746,0.781-1.746,1.746
		v77.706c0,0.964,0.781,1.746,1.746,1.746h17.858C18.639,296.735,17.858,295.953,17.858,294.989z"/>
</g>
<g>
	<path id="SVGCleanerId_0_1_" style="fill:#80868b;" d="M244.84,217.282v77.707c0,0.964,0.782,1.746,1.746,1.746h22.33
		c0.964,0,1.746-0.782,1.746-1.746c0-2.457,0-78.745,0-77.707c0-0.964-0.782-1.746-1.746-1.746h-22.33
		C245.621,215.536,244.84,216.317,244.84,217.282z"/>
</g>
<path style="fill:#80868b;" d="M261.418,294.988v-77.707c0-0.964,0.781-1.746,1.746-1.746h-16.578c-0.964,0-1.746,0.782-1.746,1.746
	v77.707c0,0.964,0.782,1.746,1.746,1.746h16.578C262.199,296.734,261.418,295.952,261.418,294.988z"/>
<g>
</g>
<g>
</g>
<g>
</g>
<g>
</g>
<g>
</g>
<g>
</g>
<g>
</g>
<g>
</g>
<g>
</g>
<g>
</g>
<g>
</g>
<g>
</g>
<g>
</g>
<g>
</g>
<g>
</g>
</svg>
