<?xml version="1.0" encoding="iso-8859-1"?>
<!-- Generator: Adobe Illustrator 19.0.0, SVG Export Plug-In . SVG Version: 6.00 Build 0)  -->
<svg version="1.1" id="Capa_1" xmlns="http://www.w3.org/2000/svg" xmlns:xlink="http://www.w3.org/1999/xlink" x="0px" y="0px"
	 viewBox="0 0 512.001 512.001" style="enable-background:new 0 0 512.001 512.001;" xml:space="preserve">
<path style="fill:#80868b;" d="M214.592,225.828c19.399,0,32.613,13.401,32.613,31.869v47.546c0,1.232-0.999,2.231-2.231,2.231
	h-17.589c-1.232,0-2.231-0.999-2.231-2.231v-43.461c0-10.619-9.441-16.965-18.564-16.965c-11.805,0-18.182,8.741-18.182,16.965
	v43.461c0,1.232-0.999,2.231-2.231,2.231h-17.584c-1.232,0-2.231-0.999-2.231-2.231v-75.837c0-1.232,0.999-2.231,2.231-2.231h17.588
	c1.232,0,2.231,0.999,2.231,2.232l-0.004,9.274l0.004-0.004l-0.004,0.017C194.833,230.114,205.347,225.828,214.592,225.828"/>
<g>
	<path style="fill:#80868b;" d="M236.487,305.244v-43.461c0-10.619-9.441-16.965-18.564-16.965c-2.105,0-4.029,0.289-5.784,0.792
		c7.037,1.996,13.016,7.725,13.016,16.173v43.461c0,1.232,0.999,2.231,2.231,2.231h11.333
		C237.486,307.475,236.487,306.476,236.487,305.244z"/>
	<path style="fill:#80868b;" d="M177.695,305.244v-75.837c0-1.232,0.999-2.231,2.231-2.231h-11.333
		c-1.232,0-2.231,0.999-2.231,2.231v75.837c0,1.232,0.999,2.231,2.231,2.231h11.333
		C178.694,307.475,177.695,306.476,177.695,305.244z"/>
</g>
<path style="fill:#80868b;" d="M405.483,227.179h20.292c1.588,0,2.667,1.612,2.063,3.08l-31.202,75.811
	c-0.344,0.836-1.159,1.382-2.063,1.382h-21.174c-0.904,0-1.719-0.546-2.063-1.382l-31.202-75.811
	c-0.604-1.468,0.475-3.08,2.063-3.08h20.297c0.938,0,1.775,0.586,2.096,1.467l17.303,47.479c0.713,1.956,3.479,1.956,4.192,0
	l17.303-47.479C403.708,227.765,404.545,227.179,405.483,227.179z"/>
<path style="fill:#80868b;" d="M382.668,306.07l-31.202-75.811c-0.604-1.468,0.475-3.08,2.063-3.08h-11.333
	c-1.588,0-2.667,1.612-2.063,3.08l31.202,75.811c0.344,0.836,1.159,1.382,2.063,1.382h11.333
	C383.827,307.452,383.012,306.906,382.668,306.07z"/>
<path style="fill:#80868b;" d="M158.165,259.658c-1.406-8.011-4.604-15.158-9.353-20.681c-7.407-8.602-18.369-13.153-31.717-13.153
	c-24.245,0-42.527,17.886-42.527,41.51c0,24.237,18.325,41.506,44.957,41.506c13.772,0,27.829-6.024,35.524-13.448
	c0.99-0.955,0.919-2.557-0.172-3.396l-10.659-8.194c-0.775-0.596-1.854-0.618-2.65-0.049c-8.476,6.057-13.667,7.54-21.717,7.54
	c-5.928,0-10.855-1.433-14.73-4.023c-1.479-0.989-1.249-3.236,0.395-3.918l51.299-21.281
	C157.768,261.675,158.344,260.674,158.165,259.658z M132.308,255.548l-33.411,13.861c-1.445,0.599-3.042-0.44-3.091-2.003
	c-0.213-6.698,1.76-12.05,4.729-16.037c3.755-5.042,9.736-8.002,16.96-8.002c6.986,0,12.49,3.508,15.836,8.907
	C134.064,253.457,133.594,255.015,132.308,255.548z"/>
<path style="fill:#80868b;" d="M85.901,267.334c0-21.813,15.591-38.721,37.066-41.188c-1.903-0.206-3.856-0.322-5.872-0.322
	c-24.245,0-42.527,17.886-42.527,41.51c0,24.237,18.325,41.506,44.957,41.506c1.807,0,3.618-0.109,5.419-0.306
	C101.555,306.164,85.901,289.73,85.901,267.334z"/>
<path style="fill:#80868b;" d="M72.467,289.459v15.785c0,1.232-0.999,2.231-2.231,2.231H2.231c-1.232,0-2.231-0.999-2.231-2.231
	v-99.852c0-1.232,0.999-2.231,2.231-2.231h17.888c1.232,0,2.231,0.999,2.231,2.231v79.606c0,1.232,0.999,2.231,2.231,2.231h45.655
	C71.468,287.228,72.467,288.227,72.467,289.459z"/>
<path style="fill:#80868b;" d="M11.333,305.244v-99.852c0-1.232,0.999-2.231,2.231-2.231H2.231c-1.232,0-2.231,0.999-2.231,2.231
	v99.852c0,1.232,0.999,2.231,2.231,2.231h11.333C12.332,307.474,11.333,306.476,11.333,305.244z"/>
<path style="fill:#80868b;" d="M468.995,225.824c-24.28,0-43.305,18.23-43.305,41.501c0,23.537,18.895,41.501,43.01,41.501
	c24.28,0,43.301-18.234,43.301-41.501C512,243.789,493.11,225.824,468.995,225.824z M468.995,289.932
	c-12.079,0-21.55-9.932-21.55-22.607c0-13.275,8.941-22.607,21.255-22.607c12.084,0,21.551,9.932,21.551,22.607
	C490.25,280.344,481.313,289.932,468.995,289.932z"/>
<g>
	<path style="fill:#80868b;" d="M474.735,289.165c1.781,0.485,3.647,0.767,5.592,0.767c12.318,0,21.255-9.589,21.255-22.607
		c0-12.675-9.467-22.607-21.55-22.607c-2.028,0-3.953,0.276-5.774,0.758c9.3,2.515,15.991,11.201,15.991,21.848
		C490.25,278.213,483.987,286.678,474.735,289.165z"/>
	<path style="fill:#80868b;" d="M437.022,267.326c0-21.426,16.132-38.566,37.64-41.152c-1.852-0.223-3.741-0.35-5.667-0.35
		c-24.28,0-43.305,18.23-43.305,41.501c0,23.537,18.895,41.501,43.01,41.501c1.925,0,3.813-0.127,5.665-0.35
		C453.023,305.909,437.022,288.982,437.022,267.326z"/>
</g>
<path style="fill:#80868b;" d="M299.234,225.824c-24.285,0-43.305,18.23-43.305,41.501c0,23.537,18.89,41.501,43.005,41.501
	c24.28,0,43.305-18.234,43.305-41.501C342.239,243.789,323.344,225.824,299.234,225.824z M299.234,289.932
	c-12.084,0-21.55-9.932-21.55-22.607c0-13.275,8.937-22.607,21.251-22.607c12.084,0,21.55,9.932,21.55,22.607
	C320.484,280.344,311.547,289.932,299.234,289.932z"/>
<g>
	<path style="fill:#80868b;" d="M267.261,267.326c0-21.426,16.129-38.566,37.639-41.152c-1.852-0.223-3.74-0.35-5.666-0.35
		c-24.284,0-43.305,18.23-43.305,41.501c0,23.537,18.89,41.501,43.005,41.501c1.925,0,3.813-0.127,5.665-0.35
		C283.258,305.909,267.261,288.982,267.261,267.326z"/>
	<path style="fill:#80868b;" d="M304.973,289.165c1.781,0.485,3.648,0.767,5.594,0.767c12.314,0,21.251-9.589,21.251-22.607
		c0-12.675-9.467-22.607-21.55-22.607c-2.028,0-3.953,0.276-5.773,0.758C325.732,251.221,325.703,283.59,304.973,289.165z"/>
</g>
<g>
</g>
<g>
</g>
<g>
</g>
<g>
</g>
<g>
</g>
<g>
</g>
<g>
</g>
<g>
</g>
<g>
</g>
<g>
</g>
<g>
</g>
<g>
</g>
<g>
</g>
<g>
</g>
<g>
</g>
</svg>
