<?xml version="1.0" encoding="iso-8859-1"?>
<!-- Generator: Adobe Illustrator 19.0.0, SVG Export Plug-In . SVG Version: 6.00 Build 0)  -->
<svg version="1.1" id="Capa_1" xmlns="http://www.w3.org/2000/svg" xmlns:xlink="http://www.w3.org/1999/xlink" x="0px" y="0px"
	 viewBox="0 0 512.001 512.001" style="enable-background:new 0 0 512.001 512.001;" xml:space="preserve">
<path style="fill:#80868b;" d="M255.891,0C166.664,0,94.23,72.392,94.23,161.804c0,89.409,72.434,161.804,161.662,161.804
	c89.43,0,161.879-72.395,161.879-161.804C417.77,72.392,345.321,0,255.891,0z"/>
<path style="fill:#80868b;" d="M114.835,161.804c0-85.947,66.932-156.154,151.37-161.468C262.794,0.121,259.357,0,255.891,0
	C166.664,0,94.23,72.392,94.23,161.804c0,89.409,72.434,161.804,161.662,161.804c3.466,0,6.902-0.121,10.314-0.336
	C181.767,317.958,114.835,247.747,114.835,161.804z"/>
<g>
	<path style="fill:#80868b;" d="M234.334,473.834h-56.525c-1.209,0-2.19-0.98-2.19-2.19v-99.639c0-1.21-0.981-2.19-2.19-2.19
		h-35.343c-1.912,0-3.462,1.55-3.462,3.462v133.084c0,1.209,0.98,2.19,2.19,2.19h97.52c1.21,0,2.19-0.98,2.19-2.19v-30.337
		C236.523,474.814,235.543,473.834,234.334,473.834z"/>
	<path style="fill:#80868b;" d="M342.677,494.73c-7.266,11.026-20.679,17.27-37.428,17.27c-36.041,0-59.527-28.72-59.527-73.058
		c0-44.983,26.402-72.706,70.149-72.706c17.435,0,32.332,4.676,43.856,13.468c10.629,8.426,15.143,16.717,17.266,32.076
		c0.327,2.365-1.507,4.483-3.894,4.483h-33.65c-2.628,0-4.884-1.754-5.671-4.262c-2.582-8.227-9.773-13.291-18.832-13.291
		c-16.576,0-26.269,15.316-26.269,40.792c0,25.838,10.07,41.35,27.002,41.35c12.062,0,19.53-6.07,23.19-19.521
		c0.612-2.251-1.101-4.473-3.434-4.473h-16.132c-3.237,0-5.861-2.624-5.861-5.861v-18.744c0-2.539,2.059-4.598,4.598-4.598h55.772
		c2.052,0,3.716,1.664,3.716,3.716v74.621c0,1.412-1.145,2.557-2.557,2.557h-29.713c-1.425,0-2.58-1.155-2.58-2.58L342.677,494.73"
		/>
</g>
<g>
	<path style="fill:#80868b;" d="M155.229,506.361V373.277c0-1.912,1.55-3.462,3.462-3.462h-20.605c-1.912,0-3.462,1.55-3.462,3.462
		v133.084c0,1.209,0.98,2.19,2.19,2.19h20.605C156.209,508.551,155.229,507.57,155.229,506.361z"/>
	<path style="fill:#80868b;" d="M266.327,438.942c0-41.293,22.26-68.022,59.748-72.133c-3.296-0.374-6.696-0.572-10.204-0.572
		c-43.747,0-70.149,27.722-70.149,72.706c0,44.338,23.486,73.058,59.527,73.058c3.572,0,6.981-0.301,10.222-0.855
		C285.372,506.109,266.327,478.862,266.327,438.942z"/>
</g>
<g>
	<path style="fill:#F2F2F2;" d="M259.827,89.25h-7.404c-2.438,0-4.421,1.983-4.421,4.42v135.508c0,2.759,2.245,5.004,5.004,5.004
		h38.575c2.544,0,4.615-2.07,4.615-4.615v-6.581c0-2.518-2.048-4.567-4.567-4.567h-27.614V93.438
		C264.016,91.129,262.136,89.25,259.827,89.25z"/>
	<path style="fill:#F2F2F2;" d="M386.109,154.086h-88.176c-2.614,0-4.74,2.126-4.74,4.74v6.431c0,2.456,1.998,4.454,4.454,4.454
		h79.322c-7.417,104.128-133.244,151.137-206.742,77.741c-74.336-74.17-26.007-207.68,89.663-206.907
		c2.308,0,4.126-1.872,4.126-4.131v-7.402c0-2.3-1.87-4.197-4.169-4.229C177.864,23.7,119.038,88.394,119.038,161.759
		c0,75.327,60.835,136.993,136.854,136.993c76.489,0,137.079-61.837,137.079-136.993
		C392.971,156.547,389.575,154.086,386.109,154.086z"/>
	<path style="fill:#F2F2F2;" d="M223.752,110.155c0,10.664-8.728,19.338-19.434,19.338c-10.652,0-19.38-8.674-19.38-19.338
		c0-10.76,8.728-19.435,19.38-19.435C215.024,90.72,223.752,99.394,223.752,110.155z"/>
</g>
<path style="fill:#80868b;" d="M209.188,110.155c0-6.144,2.852-11.6,7.277-15.157c-3.332-2.673-7.554-4.277-12.147-4.277
	c-10.652,0-19.38,8.674-19.38,19.435c0,10.664,8.729,19.338,19.38,19.338c4.593,0,8.815-1.604,12.147-4.27
	C212.04,121.676,209.188,116.244,209.188,110.155z"/>
<g>
</g>
<g>
</g>
<g>
</g>
<g>
</g>
<g>
</g>
<g>
</g>
<g>
</g>
<g>
</g>
<g>
</g>
<g>
</g>
<g>
</g>
<g>
</g>
<g>
</g>
<g>
</g>
<g>
</g>
</svg>
