<?xml version="1.0" encoding="iso-8859-1"?>
<!-- Generator: Adobe Illustrator 19.0.0, SVG Export Plug-In . SVG Version: 6.00 Build 0)  -->
<svg version="1.1" id="Capa_1" xmlns="http://www.w3.org/2000/svg" xmlns:xlink="http://www.w3.org/1999/xlink" x="0px" y="0px"
	 viewBox="0 0 512 512" style="enable-background:new 0 0 512 512;" xml:space="preserve">
<g>
	<path style="fill:#80868b;" d="M508.559,73.143h-66.261c-1.9,0-3.441-1.54-3.441-3.441V3.441c0-1.9-1.541-3.441-3.441-3.441h-29.69
		c-1.9,0-3.441,1.54-3.441,3.441v66.261c0,1.9-1.54,3.441-3.441,3.441h-66.262c-1.9,0-3.441,1.54-3.441,3.441v29.69
		c0,1.9,1.54,3.441,3.441,3.441h66.262c1.9,0,3.441,1.54,3.441,3.441v66.262c0,1.9,1.54,3.441,3.441,3.441h29.69
		c1.9,0,3.441-1.541,3.441-3.441v-66.262c0-1.9,1.54-3.441,3.441-3.441h66.261c1.9,0,3.441-1.54,3.441-3.441v-29.69
		C512,74.683,510.46,73.143,508.559,73.143z"/>
	<path style="fill:#80868b;" d="M237.714,362.273V186.298c0-1.9-1.54-3.441-3.441-3.441h-84.547c-1.9,0-3.441,1.54-3.441,3.441
		v29.69c0,1.9,1.54,3.441,3.441,3.441h47.976c1.9,0,3.441,1.54,3.441,3.441v139.404c0,1.901-1.54,3.441-3.441,3.441h-47.976
		c-1.9,0-3.441,1.54-3.441,3.441v29.69c0,1.9,1.54,3.44,3.441,3.44c4.974,0,134.438,0,139.404,0c1.9,0,3.441-1.54,3.441-3.44v-29.69
		c0-1.901-1.54-3.441-3.441-3.441h-47.976C239.255,365.714,237.714,364.174,237.714,362.273z"/>
	<path style="fill:#80868b;" d="M435.417,237.714h-29.69c-1.9,0-3.441,1.54-3.441,3.441v230.833c0,1.9-1.541,3.44-3.441,3.44H40.012
		c-1.901,0-3.441-1.54-3.441-3.44V113.155c0-1.9,1.54-3.441,3.441-3.441H264.75c1.9,0,3.441-1.54,3.441-3.441v-29.69
		c0-1.9-1.541-3.441-3.441-3.441H3.441c-1.9,0-3.441,1.54-3.441,3.441v431.976C0,510.46,1.541,512,3.441,512h431.976
		c1.9,0,3.441-1.54,3.441-3.441c0-13.188,0-253.242,0-267.404C438.857,239.255,437.317,237.714,435.417,237.714z"/>
	<path style="fill:#80868b;" d="M508.559,73.143h-66.261c-1.9,0-3.441-1.54-3.441-3.441V3.441c0-1.9-1.541-3.441-3.441-3.441h-29.69
		c-1.9,0-3.441,1.54-3.441,3.441v66.261c0,1.9-1.54,3.441-3.441,3.441h-66.262c-1.9,0-3.441,1.54-3.441,3.441v29.69
		c0,1.9,1.54,3.441,3.441,3.441h66.262c1.9,0,3.441,1.54,3.441,3.441v66.262c0,1.9,1.54,3.441,3.441,3.441h29.69
		c1.9,0,3.441-1.541,3.441-3.441v-66.262c0-1.9,1.54-3.441,3.441-3.441h66.261c1.9,0,3.441-1.54,3.441-3.441v-29.69
		C512,74.683,510.46,73.143,508.559,73.143z"/>
</g>
<g>
	<path style="fill:#80868b;" d="M347.428,106.274v-29.69c0-1.9,1.541-3.441,3.441-3.441h-18.286c-1.9,0-3.441,1.54-3.441,3.441
		v29.69c0,1.9,1.54,3.441,3.441,3.441h18.286C348.969,109.714,347.428,108.174,347.428,106.274z"/>
	<path style="fill:#80868b;" d="M420.571,69.702V3.441c0-1.9,1.54-3.441,3.441-3.441h-18.286c-1.9,0-3.441,1.54-3.441,3.441v66.261
		c0,1.9-1.54,3.441-3.441,3.441h18.286C419.031,73.143,420.571,71.602,420.571,69.702z"/>
	<path style="fill:#80868b;" d="M420.571,179.416v-66.262c0-1.9-1.54-3.441-3.441-3.441h-18.286c1.9,0,3.441,1.54,3.441,3.441
		v66.262c0,1.9,1.54,3.441,3.441,3.441h18.286C422.112,182.857,420.571,181.317,420.571,179.416z"/>
</g>
<path style="fill:#80868b;" d="M237.714,362.273V186.298c0-1.9-1.54-3.441-3.441-3.441h-84.547c-1.9,0-3.441,1.54-3.441,3.441v29.69
	c0,1.9,1.54,3.441,3.441,3.441h47.976c1.9,0,3.441,1.54,3.441,3.441v139.404c0,1.901-1.54,3.441-3.441,3.441h-47.976
	c-1.9,0-3.441,1.54-3.441,3.441v29.69c0,1.9,1.54,3.44,3.441,3.44c4.974,0,134.438,0,139.404,0c1.9,0,3.441-1.54,3.441-3.44v-29.69
	c0-1.901-1.54-3.441-3.441-3.441h-47.976C239.255,365.714,237.714,364.174,237.714,362.273z"/>
<g>
	<path style="fill:#80868b;" d="M216.59,219.428h-18.888c1.9,0,3.441,1.54,3.441,3.441v139.404c0,1.901-1.54,3.441-3.441,3.441
		h18.888c1.9,0,3.44-1.54,3.44-3.441V222.869C220.031,220.969,218.49,219.428,216.59,219.428z"/>
	<path style="fill:#80868b;" d="M149.726,219.428h18.888c-1.901,0-3.441-1.54-3.441-3.441v-29.69c0-1.9,1.54-3.441,3.441-3.441
		h-18.888c-1.9,0-3.441,1.54-3.441,3.441v29.69C146.286,217.888,147.826,219.428,149.726,219.428z"/>
	<path style="fill:#80868b;" d="M165.174,398.845v-29.69c0-1.901,1.54-3.441,3.441-3.441h-18.888c-1.9,0-3.441,1.54-3.441,3.441
		v29.69c0,1.9,1.54,3.44,3.441,3.44h18.888C166.714,402.285,165.174,400.745,165.174,398.845z"/>
	<path style="fill:#80868b;" d="M402.286,241.155v230.833c0,1.9-1.541,3.44-3.441,3.44h18.058c1.9,0,3.441-1.54,3.441-3.44V241.155
		c0-1.9,1.54-3.441,3.441-3.441h-18.058C403.826,237.714,402.286,239.255,402.286,241.155z"/>
	<path style="fill:#80868b;" d="M18.058,508.559V76.584c0-1.9,1.541-3.441,3.441-3.441H3.441c-1.9,0-3.441,1.54-3.441,3.441V508.56
		c0,1.9,1.541,3.44,3.441,3.44h18.058C19.599,512,18.058,510.46,18.058,508.559z"/>
</g>
<g>
</g>
<g>
</g>
<g>
</g>
<g>
</g>
<g>
</g>
<g>
</g>
<g>
</g>
<g>
</g>
<g>
</g>
<g>
</g>
<g>
</g>
<g>
</g>
<g>
</g>
<g>
</g>
<g>
</g>
</svg>
