<?xml version="1.0" encoding="iso-8859-1"?>
<!-- Generator: Adobe Illustrator 19.0.0, SVG Export Plug-In . SVG Version: 6.00 Build 0)  -->
<svg version="1.1" id="Capa_1" xmlns="http://www.w3.org/2000/svg" xmlns:xlink="http://www.w3.org/1999/xlink" x="0px" y="0px"
	 viewBox="0 0 512 512" style="enable-background:new 0 0 512 512;" xml:space="preserve">
<g>
	<g>
		<path style="fill:#80868b;" d="M468.33,215.308v9.21c0,0.433,0.351,0.784,0.784,0.784h3.252c3.388,0,4.467,0.502,4.467,1.756
			c0,0.743-0.45,1.609-1.355,2.838c-0.02,0.028-0.044,0.056-0.067,0.081l-15.957,17.035c-2.041,2.334-4.224,2.092-6.007,0.229
			c-0.025-0.027-15.065-16.417-15.088-16.446c-0.772-0.993-1.989-1.991-1.989-3.237c0-1.504,1.696-2.257,5.702-2.257h3.156
			c0.433,0,0.784-0.351,0.784-0.784v-9.21c0-0.433-0.351-0.784-0.784-0.784h-53.747c-0.433,0-0.784,0.351-0.784,0.784v9.212
			c0,0.432,0.356,0.782,0.789,0.783c12.894,0.049,12.332,1.366,17.164,7.016l29.591,32.732c0.13,0.144,0.202,0.331,0.202,0.526
			v16.368c0,4.264-2.159,5.764-8.319,5.764h-8.77c-0.433,0-0.784,0.351-0.784,0.784v8.832c0,0.433,0.351,0.784,0.784,0.784h59.594
			c0.433,0,0.784-0.351,0.784-0.784v-8.832c0-0.433-0.351-0.784-0.784-0.784h-8.767c-6.165,0-8.321-1.5-8.321-5.764v-16.362
			c0-0.198,0.075-0.388,0.209-0.533c0.032-0.034,25.08-27.078,25.109-27.114c9.223-11.633,10.46-12.634,17.082-12.634h4.956
			c0.433,0,0.784-0.351,0.784-0.784v-9.21c0-0.433-0.351-0.784-0.784-0.784h-42.102C468.681,214.524,468.33,214.875,468.33,215.308z
			"/>
		<path style="fill:#80868b;" d="M100.897,214.521L100.897,214.521c0.433,0,0.784,0.351,0.784,0.784v28.507
			c0,0.433-0.351,0.784-0.784,0.784l0,0H89.849c-0.285,0-0.526-0.207-0.586-0.486c-1.202-5.655-4.85-7.951-8.191-11.018
			c-17.78-16.338-57.702-11.197-57.702,0.727c0,18.424,83.222,3.762,83.222,38.599c0,33.309-61.651,33.401-87.589,19.627
			c-2.874-1.662-3.803,1.207-4.385,5.114c-0.081,0.546-0.553,0.95-1.105,0.95H1.108l0,0c-0.433,0-0.784-0.351-0.784-0.784v-29.511
			c0-0.433,0.351-0.784,0.784-0.784l0,0h11.589c0.591,0,1.112,0.374,1.316,0.928c2.632,7.13,5.438,9.074,8.631,11.729
			c14.901,12.392,59.923,13.363,59.923-1.382c0-6.265-6.717-7.767-28.36-11.152l0,0l-18.373-3.005l0,0
			C15.098,261.014,0,256.375,0,239.835c0-17.169,19.099-27.946,49.295-27.946c12.724,0,23.375,1.701,33.59,7.478
			c2.727,1.766,4.992,2.039,5.129-4.089c0.009-0.417,0.342-0.756,0.759-0.756L100.897,214.521L100.897,214.521L100.897,214.521z"/>
		<path style="fill:#80868b;" d="M184.299,211.315c-37.994,0-61.969,17.042-61.969,44.111c0,0.096,0.006,0.189,0.007,0.284
			c-0.001,0.095-0.007,0.189-0.007,0.284c0,27.069,23.975,44.111,61.969,44.111c45.095,0,63.827-21.267,63.827-43.302
			C248.127,223.601,217.664,211.315,184.299,211.315z M184.599,289.202c-20.246,0-33.712-11.282-33.851-33.492
			c0.139-22.161,13.553-33.492,33.851-33.492c22.358,0,34.356,12.12,34.563,33.492C218.956,277.018,207.023,289.202,184.599,289.202
			z"/>
		<path style="fill:#80868b;" d="M380.483,215.157h-47.169c-0.433,0-0.784,0.351-0.784,0.784v8.834c0,0.433,0.351,0.784,0.784,0.784
			h6.876c6.522,0,8.55,1.504,8.55,5.888v31.637c-0.005,0.683-0.821,1.033-1.32,0.566l-51.504-48.28
			c-0.145-0.136-0.337-0.212-0.536-0.212h-42.669c-0.433,0-0.784,0.351-0.784,0.784v8.834c0,0.433,0.351,0.784,0.784,0.784h7.602
			c6.519,0,8.801,1.504,8.801,5.888v51.127c0,4.264-2.282,5.89-8.801,5.89h-7.602c-0.433,0-0.784,0.351-0.784,0.784v8.709
			c0,0.433,0.351,0.784,0.784,0.784h49.041c0.433,0,0.784-0.351,0.784-0.784v-8.709c0-0.433-0.351-0.784-0.784-0.784h-7.693
			c-6.517,0-8.801-1.626-8.801-5.89v-40.657c0-0.688,0.823-1.042,1.323-0.569l60.222,57.033c0.144,0.136,0.335,0.213,0.533,0.215
			l17.982,0.139c0.435,0.003,0.79-0.349,0.79-0.784c0-38.97,0-41.863,0-66.504c0-4.384,2.282-5.888,8.806-5.888h5.569
			c0.433,0,0.784-0.351,0.784-0.784v-8.834C381.267,215.508,380.916,215.157,380.483,215.157z"/>
	</g>
	<g>
		<path style="fill:#80868b;" d="M72.51,293.672c19.748-0.204,26.54-4.779,26.54-11.418c0-6.168-5.809-7.979-23.999-11.083
			c5.465,1.673,7.516,3.679,7.516,7.134c0,11.291-24.44,11.659-35.533,10.206C54.087,291.64,63.515,293.767,72.51,293.672z"/>
		<path style="fill:#80868b;" d="M81.073,233.091c3.341,3.067,6.989,5.363,8.191,11.018c0.059,0.279,0.3,0.486,0.586,0.486h11.048
			c0.433,0,0.784-0.351,0.784-0.784v-5.516c-1.297-1.382-2.736-2.594-4.124-3.944c-6.191-6.027-19.594-11.045-30.87-11.045
			c-2.365,0-4.668,0.128-6.871,0.37C68.319,225.36,76.589,228.971,81.073,233.091z"/>
		<path style="fill:#80868b;" d="M16.808,273.717c-0.958-1.467-1.887-3.301-2.795-5.76c-0.205-0.554-0.726-0.928-1.316-0.928H1.108
			c-0.433,0-0.784,0.351-0.784,0.784v29.511c0,0.433,0.351,0.784,0.784,0.784h12.406c0.552,0,1.024-0.404,1.105-0.95
			c0.398-2.669,0.958-4.851,2.189-5.437V273.717z"/>
		<path style="fill:#80868b;" d="M35.833,264.147l4.211,0.689c-14.154-3.537-23.56-9.511-23.56-23.339
			c0-16.493,15.702-27.419,41.142-29.313c-2.685-0.202-5.453-0.295-8.331-0.295C19.099,211.888,0,222.666,0,239.835
			C0,256.375,15.098,261.014,35.833,264.147z"/>
		<path style="fill:#80868b;" d="M193.017,288.547c2.523,0.432,5.212,0.656,8.067,0.656c22.358,0,34.356-12.12,34.563-33.492
			c-0.206-21.308-12.139-33.492-34.563-33.492c-2.855,0-5.544,0.224-8.067,0.656c17.749,2.907,25.975,15.253,26.145,32.837
			C218.993,273.178,210.865,285.624,193.017,288.547z"/>
		<path style="fill:#80868b;" d="M138.815,255.994c0-0.096,0.006-0.189,0.007-0.284c-0.001-0.095-0.007-0.188-0.007-0.284
			c0-25.095,20.614-41.561,53.892-43.831c-2.719-0.174-5.509-0.28-8.407-0.28c-37.994,0-61.969,17.042-61.969,44.111
			c0,0.096,0.006,0.189,0.007,0.284c-0.001,0.095-0.007,0.189-0.007,0.284c0,27.069,23.975,44.111,61.969,44.111
			c2.898,0,5.688-0.106,8.407-0.28C159.429,297.555,138.815,281.089,138.815,255.994z"/>
		<path style="fill:#80868b;" d="M285.166,294.186V219.89c0-1.953-0.316-3.508-1.02-4.732h-31.434c-0.433,0-0.784,0.351-0.784,0.784
			v8.834c0,0.433,0.351,0.784,0.784,0.784h7.602c6.519,0,8.801,1.504,8.801,5.888v51.127c0,4.264-2.282,5.89-8.801,5.89h-7.602
			c-0.433,0-0.784,0.351-0.784,0.784v8.709c0,0.433,0.351,0.784,0.784,0.784h31.485
			C284.862,297.535,285.166,296.035,285.166,294.186z"/>
		<path style="fill:#80868b;" d="M454.725,265.051l-34.742-36.853l-12.231-13.674h-16.27c-0.433,0-0.784,0.351-0.784,0.784v9.212
			c0,0.432,0.356,0.782,0.789,0.783c12.894,0.049,12.333,1.366,17.164,7.016l29.591,32.732c0.13,0.144,0.202,0.331,0.202,0.526
			v16.368c0,4.264-2.159,5.764-8.319,5.764h-8.77c-0.433,0-0.784,0.351-0.784,0.784v8.832c0,0.433,0.351,0.784,0.784,0.784h33.548
			c0.015-0.228,0.024-0.463,0.024-0.71v-31.821C454.927,265.382,454.855,265.195,454.725,265.051z"/>
	</g>
</g>
<g>
</g>
<g>
</g>
<g>
</g>
<g>
</g>
<g>
</g>
<g>
</g>
<g>
</g>
<g>
</g>
<g>
</g>
<g>
</g>
<g>
</g>
<g>
</g>
<g>
</g>
<g>
</g>
<g>
</g>
</svg>
