<?xml version="1.0" encoding="iso-8859-1"?>
<!-- Generator: Adobe Illustrator 19.0.0, SVG Export Plug-In . SVG Version: 6.00 Build 0)  -->
<svg version="1.1" id="Capa_1" xmlns="http://www.w3.org/2000/svg" xmlns:xlink="http://www.w3.org/1999/xlink" x="0px" y="0px"
	 viewBox="0 0 512 512" style="enable-background:new 0 0 512 512;" xml:space="preserve">
<g>
	<g>
		<path style="fill:#80868b;" d="M201.494,235.582c0.581,3.422,6.038,10.632,8.014,13.503c28.715,41.736,36.057,53.662,43.164,63.44
			c5.268,7.238,14.326,15.159,28.142,14.524c12.987-0.585,20.204-8.788,25.778-16.844c0.134-0.194,49.066-72.179,47.529-69.894
			c6.097-9.063-1.568-18.973-10.448-17.236c-5.58,1.084-8.002,6.062-10.872,10.438c-0.146,0.223-43.3,63.771-43.107,63.489
			c-2.396,3.501-6.275,9.91-12.776,8.333c-4.851-1.176-8.194-7.202-10.588-10.784c-0.67-1-37.161-54.822-43.111-63.465
			c-2.714-3.92-5.706-9.371-13.055-8.042C204.912,223.985,200.358,229.069,201.494,235.582L201.494,235.582z"/>
		<path style="fill:#80868b;" d="M0.108,235.287c0.517,3.737,6.005,10.679,7.941,13.546l34.492,50.749
			c8.549,12.823,16.88,28.201,36.502,27.495c18.104-0.651,25.575-15.836,34.822-29.499c41.233-60.93,41.919-59.545,41.092-65.362
			c-0.768-5.414-5.752-10.153-12.214-9.228c-7.836,1.121-6.551,5.318-45.555,61.014c-11.043,15.827-13.59,22.792-21.191,21.408
			c-5.187-0.933-8.121-6.82-10.883-10.768c-48.147-68.615-45.552-73.241-56.138-71.645C3.762,223.781-0.764,228.843,0.108,235.287
			L0.108,235.287z"/>
		<path style="fill:#80868b;" d="M176.781,185.225c-1.83,0.729-2.977,2.338-4.23,3.583l-7.754,7.7
			c-5.042,5.097-0.904,7.097,5.406,13.436c1.363,1.375,2.497,2.474,3.874,3.844c5.048,5.06,6.882,1.345,13.535-5.269
			c9.17-9.142,8.896-7.25-5.394-21.412C181.018,185.907,179.407,184.173,176.781,185.225L176.781,185.225z"/>
	</g>
	<g>
		<path style="fill:#80868b;" d="M288.938,305.335c6.501,1.576,10.379-4.832,12.776-8.334
			c49.082-71.707,46.292-69.605,49.998-72.218c-2.23-1.562-5.065-2.291-8.039-1.709c-5.58,1.084-8.002,6.062-10.872,10.439
			c-0.191,0.282-43.27,63.728-43.107,63.489c-1.197,1.748-2.763,4.222-4.841,6.064C286.081,304.142,287.437,304.971,288.938,305.335
			z"/>
		<path style="fill:#80868b;" d="M264.692,312.525c-5.215-7.175-12.193-17.906-17.251-25.383
			c-32.202-47.292-33.379-48.336-33.927-51.56c-0.815-4.674,1.306-8.601,4.506-10.8c-1.947-1.491-4.422-2.358-7.855-1.737
			c-5.252,0.941-9.806,6.025-8.67,12.538c0.568,3.348,2.25,5.038,33.927,51.56c5.058,7.477,12.036,18.208,17.251,25.383
			c5.268,7.238,14.326,15.159,28.142,14.524c1.58-0.071,3.072-0.259,4.488-0.542C275.639,324.617,268.934,318.353,264.692,312.525z"
			/>
		<path style="fill:#80868b;" d="M88.017,305.41c7.446,1.356,8.011-1.785,38.455-46.793c22.054-32.756,21.409-32.079,23.882-33.856
			c-2.066-1.441-4.683-2.191-7.61-1.772c-5.637,0.806-8.051,5.635-11.078,10.226c-0.685,1.03-45.029,67.119-48.138,69.879
			C84.829,304.24,86.297,305.101,88.017,305.41z"/>
		<path style="fill:#80868b;" d="M54.561,299.581c-41.667-61.306-41.949-60.793-42.433-64.294c-0.614-4.535,1.45-8.377,4.541-10.534
			c-1.925-1.44-4.346-2.261-7.692-1.757c-5.215,0.785-9.741,5.846-8.868,12.291c0.484,3.503,0.797,3.034,42.433,64.294
			c8.549,12.823,16.88,28.201,36.502,27.495c1.67-0.06,3.247-0.246,4.746-0.54C69.22,323.716,61.969,310.693,54.561,299.581z"/>
		<path style="fill:#80868b;" d="M181.192,209.944c-6.31-6.339-10.449-8.34-5.406-13.436l7.755-7.7
			c0.066-0.066,0.131-0.136,0.197-0.203c-0.489-0.48-0.992-0.975-1.52-1.498c-1.2-1.2-2.811-2.934-5.436-1.882
			c-1.83,0.729-2.977,2.338-4.23,3.583l-7.754,7.7c-5.042,5.096-0.904,7.097,5.406,13.436c1.363,1.375,2.497,2.474,3.874,3.844
			c3.905,3.915,5.895,2.566,9.673-1.303C182.907,211.654,182.099,210.859,181.192,209.944z"/>
	</g>
	<path style="fill:#80868b;" d="M178.535,327.076h-0.64c-5.82,0-10.582-4.762-10.582-10.582v-83.019
		c0-5.82,4.762-10.582,10.582-10.582h0.64c5.82,0,10.582,4.762,10.582,10.582v83.019
		C189.116,322.314,184.355,327.076,178.535,327.076z"/>
	<path style="fill:#80868b;" d="M178.215,316.174v-82.378c0-4.011,2.202-7.526,5.451-9.419c-1.607-0.936-3.466-1.482-5.451-1.482
		c-5.996,0-10.902,4.906-10.902,10.902v82.378c0,5.996,4.906,10.902,10.902,10.902c1.985,0,3.844-0.546,5.451-1.482
		C180.416,323.7,178.215,320.185,178.215,316.174z"/>
	<path style="fill:#80868b;" d="M459.243,221.121h-50.997c-29.137,0-52.757,23.62-52.757,52.757s23.62,52.757,52.757,52.757h50.997
		c29.137,0,52.757-23.62,52.757-52.757S488.38,221.121,459.243,221.121z M459.08,306.564h-50.67
		c-18.052,0-32.687-14.634-32.687-32.687c0-18.052,14.634-32.687,32.687-32.687h50.67c18.052,0,32.687,14.634,32.687,32.687
		C491.767,291.93,477.132,306.564,459.08,306.564z"/>
	<g>
		<path style="fill:#80868b;" d="M459.08,306.564h10.131c18.052,0,32.687-14.634,32.687-32.687
			c0-18.052-14.634-32.687-32.687-32.687H459.08c18.052,0,32.687,14.634,32.687,32.687
			C491.766,291.93,477.132,306.564,459.08,306.564z"/>
		<path style="fill:#80868b;" d="M365.621,273.878c0-29.137,23.62-52.757,52.757-52.757h-10.131
			c-29.137,0-52.757,23.62-52.757,52.757s23.62,52.757,52.757,52.757h10.131C389.241,326.635,365.621,303.015,365.621,273.878z"/>
	</g>
</g>
<g>
</g>
<g>
</g>
<g>
</g>
<g>
</g>
<g>
</g>
<g>
</g>
<g>
</g>
<g>
</g>
<g>
</g>
<g>
</g>
<g>
</g>
<g>
</g>
<g>
</g>
<g>
</g>
<g>
</g>
</svg>
